<mxfile host="Electron" modified="2023-11-01T15:44:51.674Z" agent="Mozilla/5.0 (Windows NT 10.0; Win64; x64) AppleWebKit/537.36 (KHTML, like Gecko) draw.io/22.0.3 Chrome/114.0.5735.289 Electron/25.8.4 Safari/537.36" etag="c6HswyOer8gKW3XAjvUm" version="22.0.3" type="device">
  <diagram name="Pagina-1" id="6NFZwkv2oAvkN07g45ki">
    <mxGraphModel dx="30014" dy="16560" grid="1" gridSize="10" guides="1" tooltips="1" connect="1" arrows="1" fold="1" page="1" pageScale="1" pageWidth="827" pageHeight="1169" math="0" shadow="0">
      <root>
        <mxCell id="0" />
        <mxCell id="1" parent="0" />
        <mxCell id="gOkVbMLSEhI8VF7hDGrI-2" value="&lt;h1 style=&quot;&quot;&gt;&lt;span style=&quot;font-size: 40px;&quot;&gt;SCRIPT SQL DEL DATABASE &#39;BIBLIOTECA&#39;&amp;nbsp;&lt;/span&gt;&lt;br&gt;&lt;font style=&quot;font-size: 30px;&quot;&gt;(CON CAMPI CHE AMMETTONO O NO AMMETTONO VALORI NULL E CAMPO CHIAVE PRIMARIA)&lt;/font&gt;&lt;/h1&gt;" style="text;html=1;strokeColor=#d79b00;fillColor=#ffe6cc;spacing=5;spacingTop=-20;whiteSpace=wrap;overflow=hidden;rounded=0;align=center;labelBorderColor=none;" vertex="1" parent="1">
          <mxGeometry x="-670" y="5540" width="1660" height="800" as="geometry" />
        </mxCell>
        <mxCell id="seATs-7x_3SzNpBKobR3-13" value="&lt;h1 style=&quot;font-size: 40px;&quot;&gt;IL CAMPO DEL RECORD ED IL VALORE NULL&lt;/h1&gt;" style="text;html=1;strokeColor=#d79b00;fillColor=#ffe6cc;spacing=5;spacingTop=-20;whiteSpace=wrap;overflow=hidden;rounded=0;align=center;labelBorderColor=none;" parent="1" vertex="1">
          <mxGeometry x="-1370" y="2350" width="3320" height="1140" as="geometry" />
        </mxCell>
        <mxCell id="seATs-7x_3SzNpBKobR3-8" value="&lt;h1 style=&quot;font-size: 40px;&quot;&gt;SQL&lt;/h1&gt;" style="text;html=1;strokeColor=#d79b00;fillColor=#ffe6cc;spacing=5;spacingTop=-20;whiteSpace=wrap;overflow=hidden;rounded=0;align=center;labelBorderColor=none;" parent="1" vertex="1">
          <mxGeometry x="-1290" y="30" width="2980" height="1630" as="geometry" />
        </mxCell>
        <mxCell id="seATs-7x_3SzNpBKobR3-1" value="&lt;div style=&quot;padding: 0px 0px 0px 2px;&quot;&gt;&lt;div style=&quot;color: rgb(0, 0, 0); font-family: Consolas; font-size: 12pt;&quot;&gt;&lt;p style=&quot;margin: 0px;&quot;&gt;&lt;span style=&quot;color: rgb(128, 128, 128);&quot;&gt;&lt;br&gt;&lt;/span&gt;&lt;/p&gt;&lt;p style=&quot;margin: 0px;&quot;&gt;&lt;span style=&quot;color: rgb(128, 128, 128);&quot;&gt;--------------------------------&lt;/span&gt;&lt;/p&gt;&lt;p style=&quot;margin: 0px;&quot;&gt;&lt;span style=&quot;color: rgb(128, 128, 128);&quot;&gt;-- DEFINIZIONE DI COMANDI SQL --&lt;/span&gt;&lt;/p&gt;&lt;p style=&quot;margin: 0px;&quot;&gt;&lt;span style=&quot;color: rgb(128, 128, 128);&quot;&gt;--------------------------------&lt;/span&gt;&lt;/p&gt;&lt;p style=&quot;margin: 0px;&quot;&gt;&lt;span style=&quot;&quot;&gt;&lt;br&gt;&lt;/span&gt;&lt;/p&gt;&lt;p style=&quot;margin: 0px;&quot;&gt;&lt;span style=&quot;color: rgb(128, 128, 128);&quot;&gt;--SQL (SELECT QUERY LANGUAGE), E&#39; UN LINGUAGGIO DI SCRIPTING, OSSIA UN LINGAUGGIO DOVE OGNI COMANDO VIENE INTERPRETATO E SUBITO DOPO ESEGUITO.&lt;/span&gt;&lt;/p&gt;&lt;p style=&quot;margin: 0px;&quot;&gt;&lt;span style=&quot;color: rgb(128, 128, 128);&quot;&gt;--&lt;/span&gt;&lt;/p&gt;&lt;p style=&quot;margin: 0px;&quot;&gt;&lt;span style=&quot;color: rgb(128, 128, 128);&quot;&gt;--SQL COMPRENDE UN INSIEME DI COMANDI CHE HANNO LO SCOPO DI: &lt;/span&gt;&lt;/p&gt;&lt;p style=&quot;margin: 0px;&quot;&gt;&lt;span style=&quot;color: rgb(128, 128, 128);&quot;&gt;--&lt;/span&gt;&lt;/p&gt;&lt;p style=&quot;margin: 0px;&quot;&gt;&lt;span style=&quot;color: rgb(128, 128, 128);&quot;&gt;--&lt;span style=&quot;white-space: pre;&quot;&gt;&amp;nbsp;&amp;nbsp;&amp;nbsp;&amp;nbsp;&lt;/span&gt;(1) DEFINIRE LA STRUTTURA DELLE TABELLE E DEI CAMPI (IMPLEMENTAZIONE DI ENTITA&#39; E SUOI ATTRIBUTI/CARATTERISTICHE TIPIZZATI).&lt;/span&gt;&lt;/p&gt;&lt;p style=&quot;margin: 0px;&quot;&gt;&lt;span style=&quot;color: rgb(128, 128, 128);&quot;&gt;--&lt;span style=&quot;white-space: pre;&quot;&gt;&amp;nbsp;&amp;nbsp;&amp;nbsp;&amp;nbsp;&lt;/span&gt;(2) CONSENTIRE LA LETTURA E SCRITTURA DEI DATI PRESENTI NELLE TABELLE.&lt;/span&gt;&lt;/p&gt;&lt;p style=&quot;margin: 0px;&quot;&gt;&lt;span style=&quot;color: rgb(128, 128, 128);&quot;&gt;--&lt;/span&gt;&lt;/p&gt;&lt;p style=&quot;margin: 0px;&quot;&gt;&lt;span style=&quot;color: rgb(128, 128, 128);&quot;&gt;--&lt;/span&gt;&lt;/p&gt;&lt;p style=&quot;margin: 0px;&quot;&gt;&lt;span style=&quot;color: rgb(128, 128, 128);&quot;&gt;--SQL 92: NELL&#39;ANNO 1992 E&#39; STATO STANDARDIZZATO IL LINGUAGGIO SQL (SELECT QUERY LANGUAGE)&lt;/span&gt;&lt;/p&gt;&lt;p style=&quot;margin: 0px;&quot;&gt;&lt;span style=&quot;color: rgb(128, 128, 128);&quot;&gt;--&lt;/span&gt;&lt;/p&gt;&lt;p style=&quot;margin: 0px;&quot;&gt;&lt;span style=&quot;color: rgb(128, 128, 128);&quot;&gt;--OGNI MOTORE DBMS (DATA BASE MANAGEMENT SYSTEM) AGGIUNGE SUOI COMANDI SQL SPECIFICI&lt;/span&gt;&lt;/p&gt;&lt;p style=&quot;margin: 0px;&quot;&gt;&lt;span style=&quot;color: rgb(128, 128, 128);&quot;&gt;--GARANTENDO IL RISPETTO DELLO STANDARD DEFINITO IN SQL 92&lt;/span&gt;&lt;/p&gt;&lt;p style=&quot;margin: 0px;&quot;&gt;&lt;span style=&quot;color: rgb(128, 128, 128);&quot;&gt;--&lt;/span&gt;&lt;/p&gt;&lt;p style=&quot;margin: 0px;&quot;&gt;&lt;span style=&quot;color: rgb(128, 128, 128);&quot;&gt;--IL DBMS ORACLE, AD ESEMPIO, AGGIUNGE IL SUO DIALETTO SQL DENOMINATO PL-SQL&lt;/span&gt;&lt;/p&gt;&lt;p style=&quot;margin: 0px;&quot;&gt;&lt;span style=&quot;color: rgb(128, 128, 128);&quot;&gt;--IL DBMS MS-SQLSERVER, AD ESEMPIO, AGGIUNGE IL SUO DIALETTO SQL DENOMINATO TRANSACT-SQL.&lt;/span&gt;&lt;/p&gt;&lt;p style=&quot;margin: 0px;&quot;&gt;&lt;span style=&quot;color: rgb(128, 128, 128);&quot;&gt;--LO STESSO DICASI PER MYSQL (SIA PER LE VERSIONI RIALSCIATE DALLA ORCALE CHE PER QUELLE RILASCIATE DA MARIADB)&lt;/span&gt;&lt;/p&gt;&lt;p style=&quot;margin: 0px;&quot;&gt;&lt;span style=&quot;&quot;&gt;&lt;br&gt;&lt;/span&gt;&lt;/p&gt;&lt;p style=&quot;margin: 0px;&quot;&gt; &lt;/p&gt;&lt;p style=&quot;margin: 0px;&quot;&gt;&lt;span style=&quot;color: rgb(128, 128, 128);&quot;&gt;-----------------------------------------------&lt;/span&gt;&lt;/p&gt;&lt;p style=&quot;margin: 0px;&quot;&gt;&lt;span style=&quot;color: rgb(128, 128, 128);&quot;&gt;-- COMANDI SQL-DDL (DATA DEFINITION LANGUAGE)--&lt;/span&gt;&lt;/p&gt;&lt;p style=&quot;margin: 0px;&quot;&gt;&lt;span style=&quot;color: rgb(128, 128, 128);&quot;&gt;-----------------------------------------------&lt;/span&gt;&lt;/p&gt;&lt;p style=&quot;margin: 0px;&quot;&gt;&lt;span style=&quot;&quot;&gt;&lt;br&gt;&lt;/span&gt;&lt;/p&gt;&lt;p style=&quot;margin: 0px;&quot;&gt;&lt;span style=&quot;color: rgb(128, 128, 128);&quot;&gt;-- COMANDI SQL DI DEFINIZIONE DELLA STRUTTURA DEL DATABASE&lt;/span&gt;&lt;/p&gt;&lt;p style=&quot;margin: 0px;&quot;&gt;&lt;span style=&quot;color: rgb(128, 128, 128);&quot;&gt;-- COMANDI DDL(DATA DEFINITION LANGUAGE)&lt;/span&gt;&lt;/p&gt;&lt;p style=&quot;margin: 0px;&quot;&gt;&lt;span style=&quot;&quot;&gt;&lt;br&gt;&lt;/span&gt;&lt;/p&gt;&lt;p style=&quot;margin: 0px;&quot;&gt;&lt;span style=&quot;color: rgb(128, 128, 128);&quot;&gt;-- comando sql di definizione della tabella libro&lt;/span&gt;&lt;/p&gt;&lt;p style=&quot;margin: 0px;&quot;&gt;&lt;span style=&quot;&quot;&gt;&lt;span style=&quot;color:#800000;font-weight:bold;&quot;&gt;CREATE&lt;/span&gt; &lt;span style=&quot;color:#800000;font-weight:bold;&quot;&gt;TABLE&lt;/span&gt; `&lt;span style=&quot;color:#000000;&quot;&gt;libro&lt;/span&gt;` (&lt;/span&gt;&lt;/p&gt;&lt;p style=&quot;margin: 0px;&quot;&gt;&lt;span style=&quot;&quot;&gt;  `&lt;span style=&quot;color:#000000;&quot;&gt;titolo&lt;/span&gt;` &lt;span style=&quot;color:#800000;font-weight:bold;&quot;&gt;varchar&lt;/span&gt;(&lt;span style=&quot;color:#0000ff;&quot;&gt;50&lt;/span&gt;) &lt;span style=&quot;color:#800000;font-weight:bold;&quot;&gt;DEFAULT&lt;/span&gt; &lt;span style=&quot;color:#800000;font-weight:bold;&quot;&gt;NULL&lt;/span&gt;,&lt;/span&gt;&lt;/p&gt;&lt;p style=&quot;margin: 0px;&quot;&gt;&lt;span style=&quot;&quot;&gt;  `&lt;span style=&quot;color:#000000;&quot;&gt;autore&lt;/span&gt;` &lt;span style=&quot;color:#800000;font-weight:bold;&quot;&gt;varchar&lt;/span&gt;(&lt;span style=&quot;color:#0000ff;&quot;&gt;30&lt;/span&gt;) &lt;span style=&quot;color:#800000;font-weight:bold;&quot;&gt;DEFAULT&lt;/span&gt; &lt;span style=&quot;color:#800000;font-weight:bold;&quot;&gt;NULL&lt;/span&gt;,&lt;/span&gt;&lt;/p&gt;&lt;p style=&quot;margin: 0px;&quot;&gt;&lt;span style=&quot;&quot;&gt;  `&lt;span style=&quot;color:#000000;&quot;&gt;editore&lt;/span&gt;` &lt;span style=&quot;color:#800000;font-weight:bold;&quot;&gt;varchar&lt;/span&gt;(&lt;span style=&quot;color:#0000ff;&quot;&gt;40&lt;/span&gt;) &lt;span style=&quot;color:#800000;font-weight:bold;&quot;&gt;DEFAULT&lt;/span&gt; &lt;span style=&quot;color:#800000;font-weight:bold;&quot;&gt;NULL&lt;/span&gt;&lt;/span&gt;&lt;/p&gt;&lt;p style=&quot;margin: 0px;&quot;&gt;&lt;span style=&quot;&quot;&gt;) &lt;span style=&quot;color:#000000;&quot;&gt;ENGINE&lt;/span&gt;=&lt;span style=&quot;color:#000000;&quot;&gt;InnoDB&lt;/span&gt; &lt;span style=&quot;color:#800000;font-weight:bold;&quot;&gt;DEFAULT&lt;/span&gt; &lt;span style=&quot;color:#000000;&quot;&gt;CHARSET&lt;/span&gt;=&lt;span style=&quot;color:#000000;&quot;&gt;utf8mb4&lt;/span&gt;&lt;span style=&quot;color:#ff0000;&quot;&gt;;&lt;/span&gt;&lt;/span&gt;&lt;/p&gt;&lt;p style=&quot;margin: 0px;&quot;&gt;&lt;span style=&quot;&quot;&gt;&lt;br&gt;&lt;/span&gt;&lt;/p&gt;&lt;p style=&quot;margin: 0px;&quot;&gt;&lt;span style=&quot;&quot;&gt;&lt;br&gt;&lt;/span&gt;&lt;/p&gt;&lt;p style=&quot;margin: 0px;&quot;&gt;&lt;span style=&quot;color: rgb(128, 128, 128);&quot;&gt;---------------------------------------------------------------&lt;/span&gt;&lt;/p&gt;&lt;p style=&quot;margin: 0px;&quot;&gt;&lt;span style=&quot;color: rgb(128, 128, 128);&quot;&gt;-- COMANDI SQL-DML (DATA MANIPULATION LANGUAGE)--&lt;/span&gt;&lt;/p&gt;&lt;p style=&quot;margin: 0px;&quot;&gt;&lt;span style=&quot;color: rgb(128, 128, 128);&quot;&gt;---------------------------------------------------------------&lt;/span&gt;&lt;/p&gt;&lt;p style=&quot;margin: 0px;&quot;&gt;&lt;span style=&quot;&quot;&gt;&lt;br&gt;&lt;/span&gt;&lt;/p&gt;&lt;p style=&quot;margin: 0px;&quot;&gt;&lt;span style=&quot;&quot;&gt;&lt;span style=&quot;color: rgb(128, 128, 128); font-size: 12pt;&quot;&gt;-- comando sql di selezione (query-interrogazione) delle istanze-record presenti nella tabella &#39;libro&#39;&lt;/span&gt;&lt;br&gt;&lt;/span&gt;&lt;/p&gt;&lt;p style=&quot;margin: 0px;&quot;&gt;&lt;span style=&quot;color: rgb(128, 128, 128);&quot;&gt;-- comando per la lettura dei dati presenti nella tabella&lt;/span&gt;&lt;/p&gt;&lt;p style=&quot;margin: 0px;&quot;&gt;&lt;span style=&quot;&quot;&gt;&lt;span style=&quot;color:#800000;font-weight:bold;&quot;&gt;SELECT&lt;/span&gt; &lt;span style=&quot;color:#000000;&quot;&gt;titolo&lt;/span&gt;, &lt;span style=&quot;color:#000000;&quot;&gt;autore&lt;/span&gt;, &lt;span style=&quot;color:#000000;&quot;&gt;editore&lt;/span&gt;      &lt;span style=&quot;color:#808080;&quot;&gt;-- OUTPUT&lt;/span&gt;&lt;/span&gt;&lt;/p&gt;&lt;p style=&quot;margin: 0px;&quot;&gt;  &lt;span style=&quot;&quot;&gt;&lt;span style=&quot;color:#800000;font-weight:bold;&quot;&gt;FROM&lt;/span&gt; &lt;span style=&quot;color:#000000;&quot;&gt;libro&lt;/span&gt;&lt;span style=&quot;color:#ff0000;&quot;&gt;;&lt;/span&gt;  &lt;span style=&quot;white-space: pre;&quot;&gt;&amp;nbsp;&amp;nbsp;&amp;nbsp;&amp;nbsp;&lt;/span&gt;&lt;span style=&quot;white-space: pre;&quot;&gt;&amp;nbsp;&amp;nbsp;&amp;nbsp;&amp;nbsp;&lt;/span&gt;&lt;span style=&quot;white-space: pre;&quot;&gt;&amp;nbsp;&amp;nbsp;&amp;nbsp;&amp;nbsp;&lt;/span&gt;&lt;span style=&quot;white-space: pre;&quot;&gt;&amp;nbsp;&amp;nbsp;&amp;nbsp;&amp;nbsp;&lt;/span&gt;&lt;span style=&quot;white-space: pre;&quot;&gt;&amp;nbsp;&amp;nbsp;&amp;nbsp;&amp;nbsp;&lt;/span&gt;&lt;span style=&quot;white-space: pre;&quot;&gt;&amp;nbsp;&amp;nbsp;&amp;nbsp;&amp;nbsp;&lt;/span&gt;&lt;span style=&quot;color:#808080;&quot;&gt;-- INPUT (fonte dati)&lt;/span&gt;&lt;/span&gt;&lt;/p&gt;&lt;p style=&quot;margin: 0px;&quot;&gt;&lt;span style=&quot;&quot;&gt;&lt;br&gt;&lt;/span&gt;&lt;/p&gt;&lt;p style=&quot;margin: 0px;&quot;&gt;  &lt;/p&gt;&lt;p style=&quot;margin: 0px;&quot;&gt;&lt;span style=&quot;color: rgb(128, 128, 128);&quot;&gt;-- comandi per la scrittura dei dati nelle tabelle&lt;/span&gt;&lt;/p&gt;&lt;p style=&quot;margin: 0px;&quot;&gt;&lt;span style=&quot;&quot;&gt;&lt;span style=&quot;color:#800000;font-weight:bold;&quot;&gt;INSERT&lt;/span&gt; &lt;span style=&quot;color:#800000;font-weight:bold;&quot;&gt;INTO&lt;/span&gt; &lt;span style=&quot;color:#000000;&quot;&gt;libro&lt;/span&gt;&lt;span style=&quot;white-space: pre;&quot;&gt;&amp;nbsp;&amp;nbsp;&amp;nbsp;&amp;nbsp;&lt;/span&gt;&lt;span style=&quot;white-space: pre;&quot;&gt;&amp;nbsp;&amp;nbsp;&amp;nbsp;&amp;nbsp;&lt;/span&gt;&lt;span style=&quot;white-space: pre;&quot;&gt;&amp;nbsp;&amp;nbsp;&amp;nbsp;&amp;nbsp;&lt;/span&gt;&lt;span style=&quot;white-space: pre;&quot;&gt;&amp;nbsp;&amp;nbsp;&amp;nbsp;&amp;nbsp;&lt;/span&gt;&lt;span style=&quot;white-space: pre;&quot;&gt;&amp;nbsp;&amp;nbsp;&amp;nbsp;&amp;nbsp;&lt;/span&gt;&lt;span style=&quot;white-space: pre;&quot;&gt;&amp;nbsp;&amp;nbsp;&amp;nbsp;&amp;nbsp;&lt;/span&gt;&lt;span style=&quot;white-space: pre;&quot;&gt;&amp;nbsp;&amp;nbsp;&amp;nbsp;&amp;nbsp;&lt;/span&gt;&lt;span style=&quot;white-space: pre;&quot;&gt;&amp;nbsp;&amp;nbsp;&amp;nbsp;&amp;nbsp;&lt;/span&gt;&lt;span style=&quot;white-space: pre;&quot;&gt;&amp;nbsp;&amp;nbsp;&amp;nbsp;&amp;nbsp;&lt;/span&gt;&lt;span style=&quot;white-space: pre;&quot;&gt;&amp;nbsp;&amp;nbsp;&amp;nbsp;&amp;nbsp;&lt;/span&gt;&lt;span style=&quot;white-space: pre;&quot;&gt;&amp;nbsp;&amp;nbsp;&amp;nbsp;&amp;nbsp;&lt;/span&gt;&lt;span style=&quot;white-space: pre;&quot;&gt;&amp;nbsp;&amp;nbsp;&amp;nbsp;&amp;nbsp;&lt;/span&gt;&lt;span style=&quot;color:#808080;&quot;&gt;-- FONTE DATI SU CUI SCRIVERE (la tabella libro)&lt;span style=&quot;white-space: pre;&quot;&gt;&amp;nbsp;&amp;nbsp;&amp;nbsp;&amp;nbsp;&lt;/span&gt;&lt;/span&gt;&lt;/span&gt;&lt;/p&gt;&lt;p style=&quot;margin: 0px;&quot;&gt;&lt;span style=&quot;&quot;&gt;            (&lt;span style=&quot;color:#000000;&quot;&gt;titolo&lt;/span&gt;, &lt;span style=&quot;color:#000000;&quot;&gt;autore&lt;/span&gt;, &lt;span style=&quot;color:#000000;&quot;&gt;editore&lt;/span&gt;)&lt;span style=&quot;white-space: pre;&quot;&gt;&amp;nbsp;&amp;nbsp;&amp;nbsp;&amp;nbsp;&lt;/span&gt;&lt;span style=&quot;white-space: pre;&quot;&gt;&amp;nbsp;&amp;nbsp;&amp;nbsp;&amp;nbsp;&lt;/span&gt;&lt;span style=&quot;white-space: pre;&quot;&gt;&amp;nbsp;&amp;nbsp;&amp;nbsp;&amp;nbsp;&lt;/span&gt;&lt;span style=&quot;white-space: pre;&quot;&gt;&amp;nbsp;&amp;nbsp;&amp;nbsp;&amp;nbsp;&lt;/span&gt;&lt;span style=&quot;white-space: pre;&quot;&gt;&amp;nbsp;&amp;nbsp;&amp;nbsp;&amp;nbsp;&lt;/span&gt;&lt;span style=&quot;white-space: pre;&quot;&gt;&amp;nbsp;&amp;nbsp;&amp;nbsp;&amp;nbsp;&lt;/span&gt;&lt;span style=&quot;white-space: pre;&quot;&gt;&amp;nbsp;&amp;nbsp;&amp;nbsp;&amp;nbsp;&lt;/span&gt;&lt;span style=&quot;color:#808080;&quot;&gt;-- ELENCO DEI CAMPI DELLA TABELLA LIBRO DA VALORIZZARE &lt;/span&gt;&lt;/span&gt;&lt;/p&gt;&lt;p style=&quot;margin: 0px;&quot;&gt;     &lt;span style=&quot;&quot;&gt;&lt;span style=&quot;color:#800000;font-weight:bold;&quot;&gt;VALUES&lt;/span&gt; (&lt;span style=&quot;color:#008000;&quot;&gt;&#39;titolo libro&#39;&lt;/span&gt;, &lt;span style=&quot;color:#008000;&quot;&gt;&#39;autore libro&#39;&lt;/span&gt;, &lt;span style=&quot;color:#008000;&quot;&gt;&#39;editore libro&#39;&lt;/span&gt;)&lt;span style=&quot;color:#ff0000;&quot;&gt;;&lt;/span&gt; &lt;span style=&quot;white-space: pre;&quot;&gt;&amp;nbsp;&amp;nbsp;&amp;nbsp;&amp;nbsp;&lt;/span&gt;&lt;span style=&quot;color:#808080;&quot;&gt;-- VALORI DEI CAMPI  &lt;/span&gt;&lt;/span&gt;&lt;/p&gt;&lt;p style=&quot;margin: 0px;&quot;&gt;&lt;span style=&quot;&quot;&gt;&lt;br&gt;&lt;/span&gt;&lt;/p&gt;&lt;p style=&quot;margin: 0px;&quot;&gt;     &lt;/p&gt;&lt;p style=&quot;margin: 0px;&quot;&gt;&lt;span style=&quot;color: rgb(128, 128, 128);&quot;&gt;-----------------------------------&lt;/span&gt;&lt;/p&gt;&lt;p style=&quot;margin: 0px;&quot;&gt;&lt;span style=&quot;color: rgb(128, 128, 128);&quot;&gt;-- COMANDI SQL-DML --&lt;/span&gt;&lt;/p&gt;&lt;p style=&quot;margin: 0px;&quot;&gt;&lt;span style=&quot;color: rgb(128, 128, 128);&quot;&gt;-----------------------------------&lt;/span&gt;&lt;/p&gt;&lt;p style=&quot;margin: 0px;&quot;&gt;     &lt;/p&gt;&lt;p style=&quot;margin: 0px;&quot;&gt;&lt;span style=&quot;color: rgb(128, 128, 128);&quot;&gt;&lt;br&gt;&lt;/span&gt;&lt;/p&gt;&lt;p style=&quot;margin: 0px;&quot;&gt;&lt;span style=&quot;color: rgb(128, 128, 128);&quot;&gt;-- SELECT SU TUTTI I CAMPI DELLA TABELLA&lt;/span&gt;&lt;/p&gt;&lt;p style=&quot;margin: 0px;&quot;&gt;&lt;span style=&quot;color: rgb(128, 128, 128);&quot;&gt;-- CON SPECIFICA DEI NOMI DEI CAMPI&lt;/span&gt;&lt;/p&gt;&lt;p style=&quot;margin: 0px;&quot;&gt;&lt;span style=&quot;&quot;&gt;&lt;span style=&quot;color:#800000;font-weight:bold;&quot;&gt;SELECT&lt;/span&gt; &lt;span style=&quot;color:#000000;&quot;&gt;titolo&lt;/span&gt;, &lt;span style=&quot;color:#000000;&quot;&gt;autore&lt;/span&gt;, &lt;span style=&quot;color:#000000;&quot;&gt;editore&lt;/span&gt;      &lt;span style=&quot;color:#808080;&quot;&gt;-- OUTPUT&lt;/span&gt;&lt;/span&gt;&lt;/p&gt;&lt;p style=&quot;margin: 0px;&quot;&gt;  &lt;span style=&quot;&quot;&gt;&lt;span style=&quot;color:#800000;font-weight:bold;&quot;&gt;FROM&lt;/span&gt; &lt;span style=&quot;color:#000000;&quot;&gt;libro&lt;/span&gt;&lt;span style=&quot;color:#ff0000;&quot;&gt;;&lt;/span&gt;  &lt;span style=&quot;white-space: pre;&quot;&gt;&amp;nbsp;&amp;nbsp;&amp;nbsp;&amp;nbsp;&lt;/span&gt;&lt;span style=&quot;white-space: pre;&quot;&gt;&amp;nbsp;&amp;nbsp;&amp;nbsp;&amp;nbsp;&lt;/span&gt;&lt;span style=&quot;white-space: pre;&quot;&gt;&amp;nbsp;&amp;nbsp;&amp;nbsp;&amp;nbsp;&lt;/span&gt;&lt;span style=&quot;white-space: pre;&quot;&gt;&amp;nbsp;&amp;nbsp;&amp;nbsp;&amp;nbsp;&lt;/span&gt;&lt;span style=&quot;white-space: pre;&quot;&gt;&amp;nbsp;&amp;nbsp;&amp;nbsp;&amp;nbsp;&lt;/span&gt;&lt;span style=&quot;white-space: pre;&quot;&gt;&amp;nbsp;&amp;nbsp;&amp;nbsp;&amp;nbsp;&lt;/span&gt;&lt;span style=&quot;color:#808080;&quot;&gt;-- INPUT (fonte dati)&lt;/span&gt;&lt;/span&gt;&lt;/p&gt;&lt;p style=&quot;margin: 0px;&quot;&gt;  &lt;/p&gt;&lt;p style=&quot;margin: 0px;&quot;&gt;&lt;span style=&quot;color: rgb(128, 128, 128);&quot;&gt;&lt;br&gt;&lt;/span&gt;&lt;/p&gt;&lt;p style=&quot;margin: 0px;&quot;&gt;&lt;span style=&quot;color: rgb(128, 128, 128);&quot;&gt;-- SELECT SU TUTTI I CAMPI DELLA TABELLA&lt;/span&gt;&lt;/p&gt;&lt;p style=&quot;margin: 0px;&quot;&gt;&lt;span style=&quot;color: rgb(128, 128, 128);&quot;&gt;-- SENZA SPECIFICARE I NOMI DEI CAMPI   &lt;/span&gt;&lt;/p&gt;&lt;p style=&quot;margin: 0px;&quot;&gt;&lt;span style=&quot;&quot;&gt;&lt;span style=&quot;color:#800000;font-weight:bold;&quot;&gt;SELECT&lt;/span&gt; *  &lt;/span&gt;&lt;/p&gt;&lt;p style=&quot;margin: 0px;&quot;&gt;  &lt;span style=&quot;&quot;&gt;&lt;span style=&quot;color:#800000;font-weight:bold;&quot;&gt;FROM&lt;/span&gt; &lt;span style=&quot;color:#000000;&quot;&gt;libro&lt;/span&gt;&lt;span style=&quot;color:#ff0000;&quot;&gt;;&lt;/span&gt;&lt;/span&gt;&lt;/p&gt;&lt;p style=&quot;margin: 0px;&quot;&gt;&lt;span style=&quot;color: rgb(255, 0, 0);&quot;&gt;&lt;br&gt;&lt;/span&gt;&lt;/p&gt;&lt;p style=&quot;margin: 0px;&quot;&gt;  &lt;/p&gt;&lt;p style=&quot;margin: 0px;&quot;&gt;&lt;span style=&quot;color: rgb(128, 128, 128);&quot;&gt;-- SELECT SU ALCUNI DEI CAMPI DELLA TABELLA&lt;/span&gt;&lt;/p&gt;&lt;p style=&quot;margin: 0px;&quot;&gt;&lt;span style=&quot;color: rgb(128, 128, 128);&quot;&gt;-- CON SPECIFICA DEI NOMI DEI CAMPI&lt;/span&gt;&lt;/p&gt;&lt;p style=&quot;margin: 0px;&quot;&gt;&lt;span style=&quot;&quot;&gt;&lt;span style=&quot;color:#800000;font-weight:bold;&quot;&gt;SELECT&lt;/span&gt; &lt;span style=&quot;color:#000000;&quot;&gt;titolo&lt;/span&gt;, &lt;span style=&quot;color:#000000;&quot;&gt;autore&lt;/span&gt;      &lt;span style=&quot;white-space: pre;&quot;&gt;&amp;nbsp;&amp;nbsp;&amp;nbsp;&amp;nbsp;&lt;/span&gt;&lt;span style=&quot;white-space: pre;&quot;&gt;&amp;nbsp;&amp;nbsp;&amp;nbsp;&amp;nbsp;&lt;/span&gt;&lt;span style=&quot;white-space: pre;&quot;&gt;&amp;nbsp;&amp;nbsp;&amp;nbsp;&amp;nbsp;&lt;/span&gt;&lt;span style=&quot;color:#808080;&quot;&gt;-- OUTPUT&lt;/span&gt;&lt;/span&gt;&lt;/p&gt;&lt;p style=&quot;margin: 0px;&quot;&gt;  &lt;span style=&quot;&quot;&gt;&lt;span style=&quot;color:#800000;font-weight:bold;&quot;&gt;FROM&lt;/span&gt; &lt;span style=&quot;color:#000000;&quot;&gt;libro&lt;/span&gt;&lt;span style=&quot;color:#ff0000;&quot;&gt;;&lt;/span&gt;  &lt;span style=&quot;white-space: pre;&quot;&gt;&amp;nbsp;&amp;nbsp;&amp;nbsp;&amp;nbsp;&lt;/span&gt;&lt;span style=&quot;white-space: pre;&quot;&gt;&amp;nbsp;&amp;nbsp;&amp;nbsp;&amp;nbsp;&lt;/span&gt;&lt;span style=&quot;white-space: pre;&quot;&gt;&amp;nbsp;&amp;nbsp;&amp;nbsp;&amp;nbsp;&lt;/span&gt;&lt;span style=&quot;white-space: pre;&quot;&gt;&amp;nbsp;&amp;nbsp;&amp;nbsp;&amp;nbsp;&lt;/span&gt;&lt;span style=&quot;white-space: pre;&quot;&gt;&amp;nbsp;&amp;nbsp;&amp;nbsp;&amp;nbsp;&lt;/span&gt;&lt;span style=&quot;white-space: pre;&quot;&gt;&amp;nbsp;&amp;nbsp;&amp;nbsp;&amp;nbsp;&lt;/span&gt;&lt;span style=&quot;color:#808080;&quot;&gt;-- INPUT (fonte dati)&lt;/span&gt;&lt;/span&gt;&lt;/p&gt;&lt;p style=&quot;margin: 0px;&quot;&gt;&lt;span style=&quot;&quot;&gt;&lt;br&gt;&lt;/span&gt;&lt;/p&gt;&lt;p style=&quot;margin: 0px;&quot;&gt;  &lt;/p&gt;&lt;p style=&quot;margin: 0px;&quot;&gt;&lt;span style=&quot;&quot;&gt;&lt;span style=&quot;color:#800000;font-weight:bold;&quot;&gt;INSERT&lt;/span&gt; &lt;span style=&quot;color:#800000;font-weight:bold;&quot;&gt;INTO&lt;/span&gt; &lt;span style=&quot;color:#000000;&quot;&gt;libro&lt;/span&gt;&lt;span style=&quot;white-space: pre;&quot;&gt;&amp;nbsp;&amp;nbsp;&amp;nbsp;&amp;nbsp;&lt;/span&gt;&lt;span style=&quot;white-space: pre;&quot;&gt;&amp;nbsp;&amp;nbsp;&amp;nbsp;&amp;nbsp;&lt;/span&gt;&lt;span style=&quot;white-space: pre;&quot;&gt;&amp;nbsp;&amp;nbsp;&amp;nbsp;&amp;nbsp;&lt;/span&gt;&lt;span style=&quot;white-space: pre;&quot;&gt;&amp;nbsp;&amp;nbsp;&amp;nbsp;&amp;nbsp;&lt;/span&gt;&lt;span style=&quot;white-space: pre;&quot;&gt;&amp;nbsp;&amp;nbsp;&amp;nbsp;&amp;nbsp;&lt;/span&gt;&lt;span style=&quot;white-space: pre;&quot;&gt;&amp;nbsp;&amp;nbsp;&amp;nbsp;&amp;nbsp;&lt;/span&gt;&lt;span style=&quot;white-space: pre;&quot;&gt;&amp;nbsp;&amp;nbsp;&amp;nbsp;&amp;nbsp;&lt;/span&gt;&lt;span style=&quot;white-space: pre;&quot;&gt;&amp;nbsp;&amp;nbsp;&amp;nbsp;&amp;nbsp;&lt;/span&gt;&lt;span style=&quot;white-space: pre;&quot;&gt;&amp;nbsp;&amp;nbsp;&amp;nbsp;&amp;nbsp;&lt;/span&gt;&lt;span style=&quot;white-space: pre;&quot;&gt;&amp;nbsp;&amp;nbsp;&amp;nbsp;&amp;nbsp;&lt;/span&gt;&lt;span style=&quot;white-space: pre;&quot;&gt;&amp;nbsp;&amp;nbsp;&amp;nbsp;&amp;nbsp;&lt;/span&gt;&lt;span style=&quot;white-space: pre;&quot;&gt;&amp;nbsp;&amp;nbsp;&amp;nbsp;&amp;nbsp;&lt;/span&gt;&lt;span style=&quot;color:#808080;&quot;&gt;-- FONTE DATI SU CUI SCRIVERE (la tabella libro)&lt;span style=&quot;white-space: pre;&quot;&gt;&amp;nbsp;&amp;nbsp;&amp;nbsp;&amp;nbsp;&lt;/span&gt;&lt;/span&gt;&lt;/span&gt;&lt;/p&gt;&lt;p style=&quot;margin: 0px;&quot;&gt;&lt;span style=&quot;&quot;&gt;            (&lt;span style=&quot;color:#000000;&quot;&gt;titolo&lt;/span&gt;, &lt;span style=&quot;color:#000000;&quot;&gt;autore&lt;/span&gt;, &lt;span style=&quot;color:#000000;&quot;&gt;editore&lt;/span&gt;)&lt;span style=&quot;white-space: pre;&quot;&gt;&amp;nbsp;&amp;nbsp;&amp;nbsp;&amp;nbsp;&lt;/span&gt;&lt;span style=&quot;white-space: pre;&quot;&gt;&amp;nbsp;&amp;nbsp;&amp;nbsp;&amp;nbsp;&lt;/span&gt;&lt;span style=&quot;white-space: pre;&quot;&gt;&amp;nbsp;&amp;nbsp;&amp;nbsp;&amp;nbsp;&lt;/span&gt;&lt;span style=&quot;white-space: pre;&quot;&gt;&amp;nbsp;&amp;nbsp;&amp;nbsp;&amp;nbsp;&lt;/span&gt;&lt;span style=&quot;white-space: pre;&quot;&gt;&amp;nbsp;&amp;nbsp;&amp;nbsp;&amp;nbsp;&lt;/span&gt;&lt;span style=&quot;white-space: pre;&quot;&gt;&amp;nbsp;&amp;nbsp;&amp;nbsp;&amp;nbsp;&lt;/span&gt;&lt;span style=&quot;white-space: pre;&quot;&gt;&amp;nbsp;&amp;nbsp;&amp;nbsp;&amp;nbsp;&lt;/span&gt;&lt;span style=&quot;color:#808080;&quot;&gt;-- ELENCO DEI CAMPI DELLA TABELLA LIBRO DA VALORIZZARE &lt;/span&gt;&lt;/span&gt;&lt;/p&gt;&lt;p style=&quot;margin: 0px;&quot;&gt;     &lt;span style=&quot;&quot;&gt;&lt;span style=&quot;color:#800000;font-weight:bold;&quot;&gt;VALUES&lt;/span&gt; (&lt;span style=&quot;color:#008000;&quot;&gt;&#39;titolo libro&#39;&lt;/span&gt;, &lt;span style=&quot;color:#008000;&quot;&gt;&#39;autore libro&#39;&lt;/span&gt;, &lt;span style=&quot;color:#008000;&quot;&gt;&#39;editore libro&#39;&lt;/span&gt;)&lt;span style=&quot;color:#ff0000;&quot;&gt;;&lt;/span&gt; &lt;span style=&quot;white-space: pre;&quot;&gt;&amp;nbsp;&amp;nbsp;&amp;nbsp;&amp;nbsp;&lt;/span&gt;&lt;span style=&quot;color:#808080;&quot;&gt;-- VALORI DEI CAMPI    &lt;/span&gt;&lt;/span&gt;&lt;/p&gt;&lt;p style=&quot;margin: 0px;&quot;&gt;&lt;span style=&quot;color: rgb(128, 128, 128);&quot;&gt;&lt;br&gt;&lt;/span&gt;&lt;/p&gt;&lt;p style=&quot;margin: 0px;&quot;&gt;&lt;span style=&quot;color:#808080;&quot;&gt;&lt;br&gt;&lt;/span&gt;&lt;/p&gt;&lt;p style=&quot;margin: 0px;&quot;&gt;     &lt;/p&gt;&lt;/div&gt;&lt;/div&gt;" style="text;whiteSpace=wrap;html=1;labelBorderColor=default;fillColor=#0050ef;strokeColor=#001DBC;labelBackgroundColor=#99FFFF;fontColor=#ffffff;" parent="1" vertex="1">
          <mxGeometry x="-1220" y="150" width="1090" height="1440" as="geometry" />
        </mxCell>
        <mxCell id="seATs-7x_3SzNpBKobR3-2" value="" style="shape=flexArrow;endArrow=classic;html=1;rounded=0;" parent="1" edge="1">
          <mxGeometry width="50" height="50" relative="1" as="geometry">
            <mxPoint x="-80" y="950" as="sourcePoint" />
            <mxPoint x="410" y="950" as="targetPoint" />
          </mxGeometry>
        </mxCell>
        <mxCell id="seATs-7x_3SzNpBKobR3-4" value="IL LINGUAGGIO SQL" style="text;html=1;strokeColor=#A50040;fillColor=#d80073;align=center;verticalAlign=middle;whiteSpace=wrap;rounded=0;fontSize=20;fontStyle=1;fontColor=#ffffff;" parent="1" vertex="1">
          <mxGeometry x="-1220" y="100" width="1090" height="40" as="geometry" />
        </mxCell>
        <mxCell id="seATs-7x_3SzNpBKobR3-5" value="ESEMPI DI APPLICAZIONE DI ALCUNI COMANDI SQL" style="text;html=1;strokeColor=#A50040;fillColor=#d80073;align=center;verticalAlign=middle;whiteSpace=wrap;rounded=0;fontSize=20;fontStyle=1;fontColor=#ffffff;" parent="1" vertex="1">
          <mxGeometry x="490" y="390" width="1090" height="40" as="geometry" />
        </mxCell>
        <mxCell id="seATs-7x_3SzNpBKobR3-6" value="&lt;div style=&quot;padding: 0px 0px 0px 2px;&quot;&gt;&lt;div style=&quot;color: rgb(0, 0, 0); font-family: Consolas; font-size: 12pt;&quot;&gt;&lt;div style=&quot;padding: 0px 0px 0px 2px;&quot;&gt;&lt;div style=&quot;font-size: 12pt;&quot;&gt;&lt;p style=&quot;margin:0;&quot;&gt;&lt;br&gt;&lt;/p&gt;&lt;p style=&quot;margin:0;&quot;&gt;-- SELECT SU TUTTI I CAMPI DELLA TABELLA&lt;/p&gt;&lt;p style=&quot;margin:0;&quot;&gt;&lt;span style=&quot;color:#808080;&quot;&gt;-- CON SPECIFICA DEI NOMI DEI CAMPI&lt;/span&gt;&lt;/p&gt;&lt;p style=&quot;margin:0;&quot;&gt;&lt;span style=&quot;color:#800000;font-weight:bold;&quot;&gt;SELECT&lt;/span&gt; titolo, autore, editore      &lt;span style=&quot;color:#808080;&quot;&gt;-- OUTPUT&lt;/span&gt;&lt;/p&gt;&lt;p style=&quot;margin:0;&quot;&gt;  &lt;span style=&quot;color:#800000;font-weight:bold;&quot;&gt;FROM&lt;/span&gt; libro&lt;span style=&quot;color:#ff0000;&quot;&gt;;&lt;/span&gt;  &lt;span style=&quot;white-space: pre;&quot;&gt;&amp;nbsp;&amp;nbsp;&amp;nbsp;&amp;nbsp;&lt;/span&gt;&lt;span style=&quot;white-space: pre;&quot;&gt;&amp;nbsp;&amp;nbsp;&amp;nbsp;&amp;nbsp;&lt;/span&gt;&lt;span style=&quot;white-space: pre;&quot;&gt;&amp;nbsp;&amp;nbsp;&amp;nbsp;&amp;nbsp;&lt;/span&gt;&lt;span style=&quot;white-space: pre;&quot;&gt;&amp;nbsp;&amp;nbsp;&amp;nbsp;&amp;nbsp;&lt;/span&gt;&lt;span style=&quot;white-space: pre;&quot;&gt;&amp;nbsp;&amp;nbsp;&amp;nbsp;&amp;nbsp;&lt;/span&gt;&lt;span style=&quot;white-space: pre;&quot;&gt;&amp;nbsp;&amp;nbsp;&amp;nbsp;&amp;nbsp;&lt;/span&gt;&lt;span style=&quot;color:#808080;&quot;&gt;-- INPUT (fonte dati)&lt;/span&gt;&lt;/p&gt;&lt;p style=&quot;margin:0;&quot;&gt;  &lt;/p&gt;&lt;p style=&quot;margin:0;&quot;&gt;&lt;span style=&quot;color:#808080;&quot;&gt;-- SELECT SU TUTTI I CAMPI DELLA TABELLA&lt;/span&gt;&lt;/p&gt;&lt;p style=&quot;margin:0;&quot;&gt;&lt;span style=&quot;color:#808080;&quot;&gt;-- SENZA SPECIFICARE I NOMI DEI CAMPI   &lt;/span&gt;&lt;/p&gt;&lt;p style=&quot;margin:0;&quot;&gt;&lt;span style=&quot;color:#800000;font-weight:bold;&quot;&gt;SELECT&lt;/span&gt; *  &lt;/p&gt;&lt;p style=&quot;margin:0;&quot;&gt;  &lt;span style=&quot;color:#800000;font-weight:bold;&quot;&gt;FROM&lt;/span&gt; libro&lt;span style=&quot;color:#ff0000;&quot;&gt;;&lt;/span&gt;&lt;/p&gt;&lt;p style=&quot;margin:0;&quot;&gt;  &lt;/p&gt;&lt;p style=&quot;margin:0;&quot;&gt;&lt;span style=&quot;color:#808080;&quot;&gt;-- SELECT SU ALCUNI DEI CAMPI DELLA TABELLA&lt;/span&gt;&lt;/p&gt;&lt;p style=&quot;margin:0;&quot;&gt;&lt;span style=&quot;color:#808080;&quot;&gt;-- CON SPECIFICA DEI NOMI DEI CAMPI&lt;/span&gt;&lt;/p&gt;&lt;p style=&quot;margin:0;&quot;&gt;&lt;span style=&quot;color:#800000;font-weight:bold;&quot;&gt;SELECT&lt;/span&gt; titolo, autore      &lt;span style=&quot;white-space: pre;&quot;&gt;&amp;nbsp;&amp;nbsp;&amp;nbsp;&amp;nbsp;&lt;/span&gt;&lt;span style=&quot;white-space: pre;&quot;&gt;&amp;nbsp;&amp;nbsp;&amp;nbsp;&amp;nbsp;&lt;/span&gt;&lt;span style=&quot;white-space: pre;&quot;&gt;&amp;nbsp;&amp;nbsp;&amp;nbsp;&amp;nbsp;&lt;/span&gt;&lt;span style=&quot;color:#808080;&quot;&gt;-- OUTPUT&lt;/span&gt;&lt;/p&gt;&lt;p style=&quot;margin:0;&quot;&gt;  &lt;span style=&quot;color:#800000;font-weight:bold;&quot;&gt;FROM&lt;/span&gt; libro&lt;span style=&quot;color:#ff0000;&quot;&gt;;&lt;/span&gt;  &lt;span style=&quot;white-space: pre;&quot;&gt;&amp;nbsp;&amp;nbsp;&amp;nbsp;&amp;nbsp;&lt;/span&gt;&lt;span style=&quot;white-space: pre;&quot;&gt;&amp;nbsp;&amp;nbsp;&amp;nbsp;&amp;nbsp;&lt;/span&gt;&lt;span style=&quot;white-space: pre;&quot;&gt;&amp;nbsp;&amp;nbsp;&amp;nbsp;&amp;nbsp;&lt;/span&gt;&lt;span style=&quot;white-space: pre;&quot;&gt;&amp;nbsp;&amp;nbsp;&amp;nbsp;&amp;nbsp;&lt;/span&gt;&lt;span style=&quot;white-space: pre;&quot;&gt;&amp;nbsp;&amp;nbsp;&amp;nbsp;&amp;nbsp;&lt;/span&gt;&lt;span style=&quot;white-space: pre;&quot;&gt;&amp;nbsp;&amp;nbsp;&amp;nbsp;&amp;nbsp;&lt;/span&gt;&lt;span style=&quot;color:#808080;&quot;&gt;-- INPUT (fonte dati)&lt;/span&gt;&lt;/p&gt;&lt;p style=&quot;margin:0;&quot;&gt;&lt;br&gt;&lt;/p&gt;&lt;p style=&quot;margin:0;&quot;&gt;  &lt;/p&gt;&lt;p style=&quot;margin:0;&quot;&gt;&lt;span style=&quot;color:#800000;font-weight:bold;&quot;&gt;SELECT&lt;/span&gt; titolo, autore, editore, anno_edizione      &lt;span style=&quot;color:#808080;&quot;&gt;-- OUTPUT&lt;/span&gt;&lt;/p&gt;&lt;p style=&quot;margin:0;&quot;&gt;  &lt;span style=&quot;color:#800000;font-weight:bold;&quot;&gt;FROM&lt;/span&gt; libro&lt;span style=&quot;color:#ff0000;&quot;&gt;;&lt;/span&gt;  &lt;span style=&quot;white-space: pre;&quot;&gt;&amp;nbsp;&amp;nbsp;&amp;nbsp;&amp;nbsp;&lt;/span&gt;&lt;span style=&quot;white-space: pre;&quot;&gt;&amp;nbsp;&amp;nbsp;&amp;nbsp;&amp;nbsp;&lt;/span&gt;&lt;span style=&quot;white-space: pre;&quot;&gt;&amp;nbsp;&amp;nbsp;&amp;nbsp;&amp;nbsp;&lt;/span&gt;&lt;span style=&quot;white-space: pre;&quot;&gt;&amp;nbsp;&amp;nbsp;&amp;nbsp;&amp;nbsp;&lt;/span&gt;&lt;span style=&quot;white-space: pre;&quot;&gt;&amp;nbsp;&amp;nbsp;&amp;nbsp;&amp;nbsp;&lt;/span&gt;&lt;span style=&quot;white-space: pre;&quot;&gt;&amp;nbsp;&amp;nbsp;&amp;nbsp;&amp;nbsp;&lt;/span&gt;&lt;span style=&quot;white-space: pre;&quot;&gt;&amp;nbsp;&amp;nbsp;&amp;nbsp;&amp;nbsp;&lt;/span&gt;&lt;span style=&quot;white-space: pre;&quot;&gt;&amp;nbsp;&amp;nbsp;&amp;nbsp;&amp;nbsp;&lt;/span&gt;&lt;span style=&quot;white-space: pre;&quot;&gt;&amp;nbsp;&amp;nbsp;&amp;nbsp;&amp;nbsp;&lt;/span&gt;&lt;span style=&quot;white-space: pre;&quot;&gt;&amp;nbsp;&amp;nbsp;&amp;nbsp;&amp;nbsp;&lt;/span&gt;&lt;span style=&quot;color:#808080;&quot;&gt;-- INPUT (fonte dati)&lt;/span&gt;&lt;/p&gt;&lt;p style=&quot;margin:0;&quot;&gt;&lt;br&gt;&lt;/p&gt;&lt;p style=&quot;margin:0;&quot;&gt;&lt;br&gt;&lt;/p&gt;&lt;p style=&quot;margin:0;&quot;&gt;&lt;span style=&quot;color:#800000;font-weight:bold;&quot;&gt;INSERT&lt;/span&gt; &lt;span style=&quot;color:#800000;font-weight:bold;&quot;&gt;INTO&lt;/span&gt; libro&lt;span style=&quot;white-space: pre;&quot;&gt;&amp;nbsp;&amp;nbsp;&amp;nbsp;&amp;nbsp;&lt;/span&gt;&lt;span style=&quot;white-space: pre;&quot;&gt;&amp;nbsp;&amp;nbsp;&amp;nbsp;&amp;nbsp;&lt;/span&gt;&lt;span style=&quot;white-space: pre;&quot;&gt;&amp;nbsp;&amp;nbsp;&amp;nbsp;&amp;nbsp;&lt;/span&gt;&lt;span style=&quot;white-space: pre;&quot;&gt;&amp;nbsp;&amp;nbsp;&amp;nbsp;&amp;nbsp;&lt;/span&gt;&lt;span style=&quot;white-space: pre;&quot;&gt;&amp;nbsp;&amp;nbsp;&amp;nbsp;&amp;nbsp;&lt;/span&gt;&lt;span style=&quot;white-space: pre;&quot;&gt;&amp;nbsp;&amp;nbsp;&amp;nbsp;&amp;nbsp;&lt;/span&gt;&lt;span style=&quot;white-space: pre;&quot;&gt;&amp;nbsp;&amp;nbsp;&amp;nbsp;&amp;nbsp;&lt;/span&gt;&lt;span style=&quot;white-space: pre;&quot;&gt;&amp;nbsp;&amp;nbsp;&amp;nbsp;&amp;nbsp;&lt;/span&gt;&lt;span style=&quot;white-space: pre;&quot;&gt;&amp;nbsp;&amp;nbsp;&amp;nbsp;&amp;nbsp;&lt;/span&gt;&lt;span style=&quot;white-space: pre;&quot;&gt;&amp;nbsp;&amp;nbsp;&amp;nbsp;&amp;nbsp;&lt;/span&gt;&lt;span style=&quot;white-space: pre;&quot;&gt;&amp;nbsp;&amp;nbsp;&amp;nbsp;&amp;nbsp;&lt;/span&gt;&lt;span style=&quot;white-space: pre;&quot;&gt;&amp;nbsp;&amp;nbsp;&amp;nbsp;&amp;nbsp;&lt;/span&gt;&lt;span style=&quot;color:#808080;&quot;&gt;-- FONTE DATI SU CUI SCRIVERE (la tabella libro)&lt;span style=&quot;white-space: pre;&quot;&gt;&amp;nbsp;&amp;nbsp;&amp;nbsp;&amp;nbsp;&lt;/span&gt;&lt;/span&gt;&lt;/p&gt;&lt;p style=&quot;margin:0;&quot;&gt;            (titolo, autore, editore)&lt;span style=&quot;white-space: pre;&quot;&gt;&amp;nbsp;&amp;nbsp;&amp;nbsp;&amp;nbsp;&lt;/span&gt;&lt;span style=&quot;white-space: pre;&quot;&gt;&amp;nbsp;&amp;nbsp;&amp;nbsp;&amp;nbsp;&lt;/span&gt;&lt;span style=&quot;white-space: pre;&quot;&gt;&amp;nbsp;&amp;nbsp;&amp;nbsp;&amp;nbsp;&lt;/span&gt;&lt;span style=&quot;white-space: pre;&quot;&gt;&amp;nbsp;&amp;nbsp;&amp;nbsp;&amp;nbsp;&lt;/span&gt;&lt;span style=&quot;white-space: pre;&quot;&gt;&amp;nbsp;&amp;nbsp;&amp;nbsp;&amp;nbsp;&lt;/span&gt;&lt;span style=&quot;white-space: pre;&quot;&gt;&amp;nbsp;&amp;nbsp;&amp;nbsp;&amp;nbsp;&lt;/span&gt;&lt;span style=&quot;white-space: pre;&quot;&gt;&amp;nbsp;&amp;nbsp;&amp;nbsp;&amp;nbsp;&lt;/span&gt;&lt;span style=&quot;color:#808080;&quot;&gt;-- ELENCO DEI CAMPI DELLA TABELLA LIBRO DA VALORIZZARE &lt;/span&gt;&lt;/p&gt;&lt;p style=&quot;margin:0;&quot;&gt;     &lt;span style=&quot;color:#800000;font-weight:bold;&quot;&gt;VALUES&lt;/span&gt; (&lt;span style=&quot;color:#008000;&quot;&gt;&#39;titolo libro&#39;&lt;/span&gt;, &lt;span style=&quot;color:#008000;&quot;&gt;&#39;autore libro&#39;&lt;/span&gt;, &lt;span style=&quot;color:#008000;&quot;&gt;&#39;editore libro&#39;&lt;/span&gt;)&lt;span style=&quot;color:#ff0000;&quot;&gt;;&lt;/span&gt; &lt;span style=&quot;white-space: pre;&quot;&gt;&amp;nbsp;&amp;nbsp;&amp;nbsp;&amp;nbsp;&lt;/span&gt;&lt;span style=&quot;color:#808080;&quot;&gt;-- VALORI DEI CAMPI    &lt;/span&gt;&lt;/p&gt;&lt;p style=&quot;margin:0;&quot;&gt;     &lt;/p&gt;&lt;p style=&quot;margin:0;&quot;&gt;&lt;br&gt;&lt;/p&gt;&lt;p style=&quot;margin:0;&quot;&gt;&lt;span style=&quot;color:#808080;&quot;&gt;-- Ricerca dei libri scritti da &#39;Umberto Eco&#39;&lt;/span&gt;&lt;/p&gt;&lt;p style=&quot;margin:0;&quot;&gt;&lt;span style=&quot;color:#800000;font-weight:bold;&quot;&gt;SELECT&lt;/span&gt; titolo, autore, editore      &lt;span style=&quot;color:#808080;&quot;&gt;-- OUTPUT&lt;/span&gt;&lt;/p&gt;&lt;p style=&quot;margin:0;&quot;&gt;  &lt;span style=&quot;color:#800000;font-weight:bold;&quot;&gt;FROM&lt;/span&gt; libro  &lt;span style=&quot;white-space: pre;&quot;&gt;&amp;nbsp;&amp;nbsp;&amp;nbsp;&amp;nbsp;&lt;/span&gt;&lt;span style=&quot;white-space: pre;&quot;&gt;&amp;nbsp;&amp;nbsp;&amp;nbsp;&amp;nbsp;&lt;/span&gt;&lt;span style=&quot;white-space: pre;&quot;&gt;&amp;nbsp;&amp;nbsp;&amp;nbsp;&amp;nbsp;&lt;/span&gt;&lt;span style=&quot;white-space: pre;&quot;&gt;&amp;nbsp;&amp;nbsp;&amp;nbsp;&amp;nbsp;&lt;/span&gt;&lt;span style=&quot;white-space: pre;&quot;&gt;&amp;nbsp;&amp;nbsp;&amp;nbsp;&amp;nbsp;&lt;/span&gt;&lt;span style=&quot;white-space: pre;&quot;&gt;&amp;nbsp;&amp;nbsp;&amp;nbsp;&amp;nbsp;&lt;/span&gt;&lt;span style=&quot;color:#808080;&quot;&gt;-- INPUT (fonte dati)&lt;/span&gt;&lt;/p&gt;&lt;p style=&quot;margin:0;&quot;&gt; &lt;span style=&quot;color:#800000;font-weight:bold;&quot;&gt;WHERE&lt;/span&gt; autore = &lt;span style=&quot;color:#008000;&quot;&gt;&#39;Umberto Eco&#39;&lt;/span&gt;&lt;span style=&quot;white-space: pre;&quot;&gt;&amp;nbsp;&amp;nbsp;&amp;nbsp;&amp;nbsp;&lt;/span&gt;&lt;span style=&quot;white-space: pre;&quot;&gt;&amp;nbsp;&amp;nbsp;&amp;nbsp;&amp;nbsp;&lt;/span&gt;&lt;span style=&quot;color:#808080;&quot;&gt;-- CONDIZIONE DI FILTRO&lt;/span&gt;&lt;/p&gt;&lt;p style=&quot;margin:0;&quot;&gt;&lt;br&gt;&lt;/p&gt;&lt;p style=&quot;margin:0;&quot;&gt;&lt;span style=&quot;color:#808080;&quot;&gt;-- Ricerca dei libri editi da &#39;Mondadori&#39;&lt;/span&gt;&lt;/p&gt;&lt;p style=&quot;margin:0;&quot;&gt;&lt;span style=&quot;color:#800000;font-weight:bold;&quot;&gt;SELECT&lt;/span&gt; titolo, autore, editore      &lt;span style=&quot;color:#808080;&quot;&gt;-- OUTPUT&lt;/span&gt;&lt;/p&gt;&lt;p style=&quot;margin:0;&quot;&gt;  &lt;span style=&quot;color:#800000;font-weight:bold;&quot;&gt;FROM&lt;/span&gt; libro  &lt;span style=&quot;white-space: pre;&quot;&gt;&amp;nbsp;&amp;nbsp;&amp;nbsp;&amp;nbsp;&lt;/span&gt;&lt;span style=&quot;white-space: pre;&quot;&gt;&amp;nbsp;&amp;nbsp;&amp;nbsp;&amp;nbsp;&lt;/span&gt;&lt;span style=&quot;white-space: pre;&quot;&gt;&amp;nbsp;&amp;nbsp;&amp;nbsp;&amp;nbsp;&lt;/span&gt;&lt;span style=&quot;white-space: pre;&quot;&gt;&amp;nbsp;&amp;nbsp;&amp;nbsp;&amp;nbsp;&lt;/span&gt;&lt;span style=&quot;white-space: pre;&quot;&gt;&amp;nbsp;&amp;nbsp;&amp;nbsp;&amp;nbsp;&lt;/span&gt;&lt;span style=&quot;white-space: pre;&quot;&gt;&amp;nbsp;&amp;nbsp;&amp;nbsp;&amp;nbsp;&lt;/span&gt;&lt;span style=&quot;color:#808080;&quot;&gt;-- INPUT (fonte dati)&lt;/span&gt;&lt;/p&gt;&lt;p style=&quot;margin:0;&quot;&gt; &lt;span style=&quot;color:#800000;font-weight:bold;&quot;&gt;WHERE&lt;/span&gt; editore = &lt;span style=&quot;color:#008000;&quot;&gt;&#39;Mondadori&#39;&lt;/span&gt;&lt;span style=&quot;white-space: pre;&quot;&gt;&amp;nbsp;&amp;nbsp;&amp;nbsp;&amp;nbsp;&lt;/span&gt;&lt;span style=&quot;white-space: pre;&quot;&gt;&amp;nbsp;&amp;nbsp;&amp;nbsp;&amp;nbsp;&lt;/span&gt;&lt;span style=&quot;color:#808080;&quot;&gt;-- CONDIZIONE DI FILTRO&lt;/span&gt;&lt;/p&gt;&lt;p style=&quot;margin:0;&quot;&gt; &lt;/p&gt;&lt;p style=&quot;margin:0;&quot;&gt;&lt;span style=&quot;color:#808080;&quot;&gt;-- Ricerca dei libri editi da &#39;Mondadori&#39; e scritti da &#39;Umberto Eco&#39;&lt;/span&gt;&lt;/p&gt;&lt;p style=&quot;margin:0;&quot;&gt;&lt;span style=&quot;color:#808080;&quot;&gt;-- Entrambe le condizioni di filtro debbono essere verificate (vere)&lt;/span&gt;&lt;/p&gt;&lt;p style=&quot;margin:0;&quot;&gt;&lt;span style=&quot;color:#800000;font-weight:bold;&quot;&gt;SELECT&lt;/span&gt; titolo, autore, editore      &lt;span style=&quot;color:#808080;&quot;&gt;-- OUTPUT&lt;/span&gt;&lt;/p&gt;&lt;p style=&quot;margin:0;&quot;&gt;  &lt;span style=&quot;color:#800000;font-weight:bold;&quot;&gt;FROM&lt;/span&gt; libro  &lt;span style=&quot;white-space: pre;&quot;&gt;&amp;nbsp;&amp;nbsp;&amp;nbsp;&amp;nbsp;&lt;/span&gt;&lt;span style=&quot;white-space: pre;&quot;&gt;&amp;nbsp;&amp;nbsp;&amp;nbsp;&amp;nbsp;&lt;/span&gt;&lt;span style=&quot;white-space: pre;&quot;&gt;&amp;nbsp;&amp;nbsp;&amp;nbsp;&amp;nbsp;&lt;/span&gt;&lt;span style=&quot;white-space: pre;&quot;&gt;&amp;nbsp;&amp;nbsp;&amp;nbsp;&amp;nbsp;&lt;/span&gt;&lt;span style=&quot;white-space: pre;&quot;&gt;&amp;nbsp;&amp;nbsp;&amp;nbsp;&amp;nbsp;&lt;/span&gt;&lt;span style=&quot;white-space: pre;&quot;&gt;&amp;nbsp;&amp;nbsp;&amp;nbsp;&amp;nbsp;&lt;/span&gt;&lt;span style=&quot;color:#808080;&quot;&gt;-- INPUT (fonte dati)&lt;/span&gt;&lt;/p&gt;&lt;p style=&quot;margin:0;&quot;&gt; &lt;span style=&quot;color:#800000;font-weight:bold;&quot;&gt;WHERE&lt;/span&gt; editore = &lt;span style=&quot;color:#008000;&quot;&gt;&#39;Mondadori&#39;&lt;/span&gt;&lt;span style=&quot;white-space: pre;&quot;&gt;&amp;nbsp;&amp;nbsp;&amp;nbsp;&amp;nbsp;&lt;/span&gt;&lt;span style=&quot;white-space: pre;&quot;&gt;&amp;nbsp;&amp;nbsp;&amp;nbsp;&amp;nbsp;&lt;/span&gt;&lt;span style=&quot;color:#808080;&quot;&gt;-- CONDIZIONE DI FILTRO 1&lt;/span&gt;&lt;/p&gt;&lt;p style=&quot;margin:0;&quot;&gt;   &lt;span style=&quot;color:#800000;font-weight:bold;&quot;&gt;AND&lt;/span&gt; autore = &lt;span style=&quot;color:#008000;&quot;&gt;&#39;Umberto Eco&#39;&lt;/span&gt;&lt;span style=&quot;white-space: pre;&quot;&gt;&amp;nbsp;&amp;nbsp;&amp;nbsp;&amp;nbsp;&lt;/span&gt;&lt;span style=&quot;white-space: pre;&quot;&gt;&amp;nbsp;&amp;nbsp;&amp;nbsp;&amp;nbsp;&lt;/span&gt;&lt;span style=&quot;color:#808080;&quot;&gt;-- CONDIZIONE DI FILTRO 2&lt;/span&gt;&lt;/p&gt;&lt;p style=&quot;margin:0;&quot;&gt; &lt;/p&gt;&lt;p style=&quot;margin:0;&quot;&gt;&lt;span style=&quot;color:#808080;&quot;&gt;-- Ricerca dei libri editi da &#39;Mondadori&#39; e scritti da &#39;Umberto Eco&#39;&lt;/span&gt;&lt;/p&gt;&lt;p style=&quot;margin:0;&quot;&gt;&lt;span style=&quot;color:#808080;&quot;&gt;-- Basta che almeno una delle condizioni di filtro siano verificate (vere)&lt;/span&gt;&lt;/p&gt;&lt;p style=&quot;margin:0;&quot;&gt;&lt;span style=&quot;color:#800000;font-weight:bold;&quot;&gt;SELECT&lt;/span&gt; titolo, autore, editore      &lt;span style=&quot;color:#808080;&quot;&gt;-- OUTPUT&lt;/span&gt;&lt;/p&gt;&lt;p style=&quot;margin:0;&quot;&gt;  &lt;span style=&quot;color:#800000;font-weight:bold;&quot;&gt;FROM&lt;/span&gt; libro  &lt;span style=&quot;white-space: pre;&quot;&gt;&amp;nbsp;&amp;nbsp;&amp;nbsp;&amp;nbsp;&lt;/span&gt;&lt;span style=&quot;white-space: pre;&quot;&gt;&amp;nbsp;&amp;nbsp;&amp;nbsp;&amp;nbsp;&lt;/span&gt;&lt;span style=&quot;white-space: pre;&quot;&gt;&amp;nbsp;&amp;nbsp;&amp;nbsp;&amp;nbsp;&lt;/span&gt;&lt;span style=&quot;white-space: pre;&quot;&gt;&amp;nbsp;&amp;nbsp;&amp;nbsp;&amp;nbsp;&lt;/span&gt;&lt;span style=&quot;white-space: pre;&quot;&gt;&amp;nbsp;&amp;nbsp;&amp;nbsp;&amp;nbsp;&lt;/span&gt;&lt;span style=&quot;white-space: pre;&quot;&gt;&amp;nbsp;&amp;nbsp;&amp;nbsp;&amp;nbsp;&lt;/span&gt;&lt;span style=&quot;color:#808080;&quot;&gt;-- INPUT (fonte dati)&lt;/span&gt;&lt;/p&gt;&lt;p style=&quot;margin:0;&quot;&gt; &lt;span style=&quot;color:#800000;font-weight:bold;&quot;&gt;WHERE&lt;/span&gt; editore = &lt;span style=&quot;color:#008000;&quot;&gt;&#39;Mondadori&#39;&lt;/span&gt;&lt;span style=&quot;white-space: pre;&quot;&gt;&amp;nbsp;&amp;nbsp;&amp;nbsp;&amp;nbsp;&lt;/span&gt;&lt;span style=&quot;white-space: pre;&quot;&gt;&amp;nbsp;&amp;nbsp;&amp;nbsp;&amp;nbsp;&lt;/span&gt;&lt;span style=&quot;color:#808080;&quot;&gt;-- CONDIZIONE DI FILTRO 1&lt;/span&gt;&lt;/p&gt;&lt;p style=&quot;margin:0;&quot;&gt;    &lt;span style=&quot;color:#800000;font-weight:bold;&quot;&gt;OR&lt;/span&gt; autore = &lt;span style=&quot;color:#008000;&quot;&gt;&#39;Umberto Eco&#39;&lt;/span&gt;&lt;span style=&quot;white-space: pre;&quot;&gt;&amp;nbsp;&amp;nbsp;&amp;nbsp;&amp;nbsp;&lt;/span&gt;&lt;span style=&quot;white-space: pre;&quot;&gt;&amp;nbsp;&amp;nbsp;&amp;nbsp;&amp;nbsp;&lt;/span&gt;&lt;span style=&quot;color:#808080;&quot;&gt;-- CONDIZIONE DI FILTRO 2&lt;/span&gt;&lt;/p&gt;&lt;p style=&quot;margin:0;&quot;&gt;    &lt;/p&gt;&lt;p style=&quot;margin:0;&quot;&gt;    &lt;/p&gt;&lt;p style=&quot;margin:0;&quot;&gt; &lt;span style=&quot;color:#800000;font-weight:bold;&quot;&gt;SELECT&lt;/span&gt; titolo, autore, editore, anno_edizione      &lt;span style=&quot;color:#808080;&quot;&gt;-- OUTPUT&lt;/span&gt;&lt;/p&gt;&lt;p style=&quot;margin:0;&quot;&gt;  &lt;span style=&quot;color:#800000;font-weight:bold;&quot;&gt;FROM&lt;/span&gt; libro&lt;span style=&quot;color:#ff0000;&quot;&gt;;&lt;/span&gt;     &lt;/p&gt;&lt;p style=&quot;margin:0;&quot;&gt; &lt;/p&gt;&lt;p style=&quot;margin:0;&quot;&gt; &lt;/p&gt;&lt;p style=&quot;margin:0;&quot;&gt; &lt;span style=&quot;color:#800000;font-weight:bold;&quot;&gt;INSERT&lt;/span&gt; &lt;span style=&quot;color:#800000;font-weight:bold;&quot;&gt;INTO&lt;/span&gt; libro&lt;span style=&quot;white-space: pre;&quot;&gt;&amp;nbsp;&amp;nbsp;&amp;nbsp;&amp;nbsp;&lt;/span&gt;&lt;span style=&quot;white-space: pre;&quot;&gt;&amp;nbsp;&amp;nbsp;&amp;nbsp;&amp;nbsp;&lt;/span&gt;&lt;span style=&quot;white-space: pre;&quot;&gt;&amp;nbsp;&amp;nbsp;&amp;nbsp;&amp;nbsp;&lt;/span&gt;&lt;span style=&quot;white-space: pre;&quot;&gt;&amp;nbsp;&amp;nbsp;&amp;nbsp;&amp;nbsp;&lt;/span&gt;&lt;span style=&quot;white-space: pre;&quot;&gt;&amp;nbsp;&amp;nbsp;&amp;nbsp;&amp;nbsp;&lt;/span&gt;&lt;span style=&quot;white-space: pre;&quot;&gt;&amp;nbsp;&amp;nbsp;&amp;nbsp;&amp;nbsp;&lt;/span&gt;&lt;span style=&quot;white-space: pre;&quot;&gt;&amp;nbsp;&amp;nbsp;&amp;nbsp;&amp;nbsp;&lt;/span&gt;&lt;span style=&quot;white-space: pre;&quot;&gt;&amp;nbsp;&amp;nbsp;&amp;nbsp;&amp;nbsp;&lt;/span&gt;&lt;span style=&quot;white-space: pre;&quot;&gt;&amp;nbsp;&amp;nbsp;&amp;nbsp;&amp;nbsp;&lt;/span&gt;&lt;span style=&quot;color:#808080;&quot;&gt;-- FONTE DATI SU CUI SCRIVERE (la tabella libro)&lt;span style=&quot;white-space: pre;&quot;&gt;&amp;nbsp;&amp;nbsp;&amp;nbsp;&amp;nbsp;&lt;/span&gt;&lt;/span&gt;&lt;/p&gt;&lt;p style=&quot;margin:0;&quot;&gt;            (titolo, autore, editore)&lt;span style=&quot;white-space: pre;&quot;&gt;&amp;nbsp;&amp;nbsp;&amp;nbsp;&amp;nbsp;&lt;/span&gt;&lt;span style=&quot;white-space: pre;&quot;&gt;&amp;nbsp;&amp;nbsp;&amp;nbsp;&amp;nbsp;&lt;/span&gt;&lt;span style=&quot;white-space: pre;&quot;&gt;&amp;nbsp;&amp;nbsp;&amp;nbsp;&amp;nbsp;&lt;/span&gt;&lt;span style=&quot;white-space: pre;&quot;&gt;&amp;nbsp;&amp;nbsp;&amp;nbsp;&amp;nbsp;&lt;/span&gt;&lt;span style=&quot;white-space: pre;&quot;&gt;&amp;nbsp;&amp;nbsp;&amp;nbsp;&amp;nbsp;&lt;/span&gt;&lt;span style=&quot;white-space: pre;&quot;&gt;&amp;nbsp;&amp;nbsp;&amp;nbsp;&amp;nbsp;&lt;/span&gt;&lt;span style=&quot;white-space: pre;&quot;&gt;&amp;nbsp;&amp;nbsp;&amp;nbsp;&amp;nbsp;&lt;/span&gt;&lt;span style=&quot;color:#808080;&quot;&gt;-- ELENCO DEI CAMPI DELLA TABELLA LIBRO DA VALORIZZARE &lt;/span&gt;&lt;/p&gt;&lt;p style=&quot;margin:0;&quot;&gt;     &lt;span style=&quot;color:#800000;font-weight:bold;&quot;&gt;VALUES&lt;/span&gt; (&lt;span style=&quot;color:#008000;&quot;&gt;&#39;Il nome della rosa&#39;&lt;/span&gt;, &lt;span style=&quot;color:#008000;&quot;&gt;&#39;Umebrto Eco&#39;&lt;/span&gt;, &lt;span style=&quot;color:#008000;&quot;&gt;&#39;Sperling&#39;&lt;/span&gt;)&lt;span style=&quot;color:#ff0000;&quot;&gt;;&lt;/span&gt; &lt;/p&gt;&lt;p style=&quot;margin:0;&quot;&gt; &lt;/p&gt;&lt;p style=&quot;margin:0;&quot;&gt;&lt;span style=&quot;color:#800000;font-weight:bold;&quot;&gt;INSERT&lt;/span&gt; &lt;span style=&quot;color:#800000;font-weight:bold;&quot;&gt;INTO&lt;/span&gt; libro&lt;span style=&quot;white-space: pre;&quot;&gt;&amp;nbsp;&amp;nbsp;&amp;nbsp;&amp;nbsp;&lt;/span&gt;&lt;span style=&quot;white-space: pre;&quot;&gt;&amp;nbsp;&amp;nbsp;&amp;nbsp;&amp;nbsp;&lt;/span&gt;&lt;span style=&quot;white-space: pre;&quot;&gt;&amp;nbsp;&amp;nbsp;&amp;nbsp;&amp;nbsp;&lt;/span&gt;&lt;span style=&quot;white-space: pre;&quot;&gt;&amp;nbsp;&amp;nbsp;&amp;nbsp;&amp;nbsp;&lt;/span&gt;&lt;span style=&quot;white-space: pre;&quot;&gt;&amp;nbsp;&amp;nbsp;&amp;nbsp;&amp;nbsp;&lt;/span&gt;&lt;span style=&quot;white-space: pre;&quot;&gt;&amp;nbsp;&amp;nbsp;&amp;nbsp;&amp;nbsp;&lt;/span&gt;&lt;span style=&quot;white-space: pre;&quot;&gt;&amp;nbsp;&amp;nbsp;&amp;nbsp;&amp;nbsp;&lt;/span&gt;&lt;span style=&quot;white-space: pre;&quot;&gt;&amp;nbsp;&amp;nbsp;&amp;nbsp;&amp;nbsp;&lt;/span&gt;&lt;span style=&quot;white-space: pre;&quot;&gt;&amp;nbsp;&amp;nbsp;&amp;nbsp;&amp;nbsp;&lt;/span&gt;&lt;span style=&quot;color:#808080;&quot;&gt;-- FONTE DATI SU CUI SCRIVERE (la tabella libro)&lt;span style=&quot;white-space: pre;&quot;&gt;&amp;nbsp;&amp;nbsp;&amp;nbsp;&amp;nbsp;&lt;/span&gt;&lt;/span&gt;&lt;/p&gt;&lt;p style=&quot;margin:0;&quot;&gt;            (titolo, autore, editore)&lt;span style=&quot;white-space: pre;&quot;&gt;&amp;nbsp;&amp;nbsp;&amp;nbsp;&amp;nbsp;&lt;/span&gt;&lt;span style=&quot;white-space: pre;&quot;&gt;&amp;nbsp;&amp;nbsp;&amp;nbsp;&amp;nbsp;&lt;/span&gt;&lt;span style=&quot;white-space: pre;&quot;&gt;&amp;nbsp;&amp;nbsp;&amp;nbsp;&amp;nbsp;&lt;/span&gt;&lt;span style=&quot;white-space: pre;&quot;&gt;&amp;nbsp;&amp;nbsp;&amp;nbsp;&amp;nbsp;&lt;/span&gt;&lt;span style=&quot;white-space: pre;&quot;&gt;&amp;nbsp;&amp;nbsp;&amp;nbsp;&amp;nbsp;&lt;/span&gt;&lt;span style=&quot;white-space: pre;&quot;&gt;&amp;nbsp;&amp;nbsp;&amp;nbsp;&amp;nbsp;&lt;/span&gt;&lt;span style=&quot;white-space: pre;&quot;&gt;&amp;nbsp;&amp;nbsp;&amp;nbsp;&amp;nbsp;&lt;/span&gt;&lt;span style=&quot;color:#808080;&quot;&gt;-- ELENCO DEI CAMPI DELLA TABELLA LIBRO DA VALORIZZARE &lt;/span&gt;&lt;/p&gt;&lt;p style=&quot;margin:0;&quot;&gt;     &lt;span style=&quot;color:#800000;font-weight:bold;&quot;&gt;VALUES&lt;/span&gt; (&lt;span style=&quot;color:#800000;font-weight:bold;&quot;&gt;NULL&lt;/span&gt;, &lt;span style=&quot;color:#800000;font-weight:bold;&quot;&gt;NULL&lt;/span&gt;, &lt;span style=&quot;color:#800000;font-weight:bold;&quot;&gt;NULL&lt;/span&gt;, &lt;span style=&quot;color:#800000;font-weight:bold;&quot;&gt;NULL&lt;/span&gt;)&lt;span style=&quot;color:#ff0000;&quot;&gt;;&lt;/span&gt;&lt;/p&gt;&lt;p style=&quot;margin:0;&quot;&gt;&lt;br&gt;&lt;/p&gt;&lt;p style=&quot;margin:0;&quot;&gt;&lt;span style=&quot;color:#800000;font-weight:bold;&quot;&gt;INSERT&lt;/span&gt; &lt;span style=&quot;color:#800000;font-weight:bold;&quot;&gt;INTO&lt;/span&gt; libro&lt;span style=&quot;white-space: pre;&quot;&gt;&amp;nbsp;&amp;nbsp;&amp;nbsp;&amp;nbsp;&lt;/span&gt;&lt;span style=&quot;white-space: pre;&quot;&gt;&amp;nbsp;&amp;nbsp;&amp;nbsp;&amp;nbsp;&lt;/span&gt;&lt;span style=&quot;white-space: pre;&quot;&gt;&amp;nbsp;&amp;nbsp;&amp;nbsp;&amp;nbsp;&lt;/span&gt;&lt;span style=&quot;white-space: pre;&quot;&gt;&amp;nbsp;&amp;nbsp;&amp;nbsp;&amp;nbsp;&lt;/span&gt;&lt;span style=&quot;white-space: pre;&quot;&gt;&amp;nbsp;&amp;nbsp;&amp;nbsp;&amp;nbsp;&lt;/span&gt;&lt;span style=&quot;white-space: pre;&quot;&gt;&amp;nbsp;&amp;nbsp;&amp;nbsp;&amp;nbsp;&lt;/span&gt;&lt;span style=&quot;white-space: pre;&quot;&gt;&amp;nbsp;&amp;nbsp;&amp;nbsp;&amp;nbsp;&lt;/span&gt;&lt;span style=&quot;white-space: pre;&quot;&gt;&amp;nbsp;&amp;nbsp;&amp;nbsp;&lt;/span&gt;&lt;span style=&quot;color:#808080;&quot;&gt;-- FONTE DATI SU CUI SCRIVERE (la tabella libro)&lt;span style=&quot;white-space: pre;&quot;&gt;&amp;nbsp;&amp;nbsp;&amp;nbsp;&amp;nbsp;&lt;/span&gt;&lt;/span&gt;&lt;/p&gt;&lt;p style=&quot;margin:0;&quot;&gt;            (titolo, autore, editore, anno_edizione)&lt;span style=&quot;white-space: pre;&quot;&gt;&amp;nbsp;&amp;nbsp;&amp;nbsp;&amp;nbsp;&lt;/span&gt;&lt;span style=&quot;white-space: pre;&quot;&gt;&amp;nbsp;&amp;nbsp;&amp;nbsp;&lt;span style=&quot;white-space: pre;&quot;&gt;&#x9;&lt;/span&gt;&lt;/span&gt;&lt;span style=&quot;color:#808080;&quot;&gt;-- ELENCO DEI CAMPI DELLA TABELLA LIBRO DA VALORIZZARE &lt;/span&gt;&lt;/p&gt;&lt;p style=&quot;margin:0;&quot;&gt;&lt;span style=&quot;white-space: pre;&quot;&gt;&amp;nbsp;&amp;nbsp;&amp;nbsp;&amp;nbsp;&lt;/span&gt; &lt;span style=&quot;color:#800000;font-weight:bold;&quot;&gt;VALUES&lt;/span&gt; (&lt;span style=&quot;color:#008000;&quot;&gt;&#39;Il nome della rosa&#39;&lt;/span&gt;, &lt;span style=&quot;color:#008000;&quot;&gt;&#39;Umberto Eco&#39;&lt;/span&gt;, &lt;span style=&quot;color:#008000;&quot;&gt;&#39;Mondadori&#39;&lt;/span&gt;, &lt;span style=&quot;color:#0000ff;&quot;&gt;1994&lt;/span&gt;)&lt;span style=&quot;color:#ff0000;&quot;&gt;;&lt;/span&gt;    &lt;/p&gt;&lt;p style=&quot;margin:0;&quot;&gt;&lt;br&gt;&lt;/p&gt;&lt;/div&gt;&lt;/div&gt;&lt;p style=&quot;margin: 0px;&quot;&gt;     &lt;/p&gt;&lt;/div&gt;&lt;/div&gt;" style="text;whiteSpace=wrap;html=1;labelBorderColor=default;labelBackgroundColor=none;fillColor=#f8cecc;strokeColor=#b85450;" parent="1" vertex="1">
          <mxGeometry x="500" y="460" width="1020" height="1100" as="geometry" />
        </mxCell>
        <mxCell id="seATs-7x_3SzNpBKobR3-12" value="" style="shape=image;verticalLabelPosition=bottom;labelBackgroundColor=default;verticalAlign=top;aspect=fixed;imageAspect=0;image=data:image/png,iVBORw0KGgoAAAANSUhEUgAAAtAAAAEQCAYAAACZV0O1AAAgAElEQVR4nOzdf3Aj9Z3/+WfDZPJl2AwshIVLzjAQyRuMzZcEs0VJX272G2Jq5cnmbNfiva+3WONv8ZXuu9kgnfcmVzEOd0WMU1/m1icRkl1pp87Ml/o6G5OzvflmrC0mye1UVv5mCwGTsfBULAHDOJuDsKn1kCUDYTJ9f6j1W7IkW7Z++PWoUs2o+9Of/qi73f3uT7+721hfXzcREREREZGKXFbvBoiIiIiINBMF0CIiIiIiVVAALSIiIiJSBQXQIiIiIiJVUAAtIiIiIlIFBdAiIiIiIlXYU+8GSHFPPPFEvZsgIiIV+sIXvlDvJojIDlIA3cAef/zxejdBRETKeOSRR+rdBBHZYUrhEBERERGpggJoEREREZEqKIVDRESkgSUSiaqnsdls29ASEUlRAC0iItLg7rzzzorLvvDCC9vYEhGBilI4TuC7+mqu9p0oMryHr7+6Le2qgc20L3uaRv19YTyGk0ACSARwpv6fPVxERCTtDM9+6Ut8Kf15ipNvbbHKt07yVKl6NhpXc2d4dsfmJZJRYQ70Xdz18v0UxNB10aiBbR3YvETMCF5dqRMRkQ1dz6cf/jJf/vKXefjT8N1vnqS6mDMvUL3uIH/65T/l4HXlxom0popvIuz/wiQvP/F1FLeKiIg0r+sO3svtby6zol5bkU2r/CkcH/sTvnDbGJ5SXb+vfp2eq6/mauuT6a22eoxPZMb7TsCrX+9Jl+3JrjOnHh+5nd4n8F19P0/zPGOfzKSVnPBl5luQavJKpr7K51Oo6DxO+Li6p54nFUXSNuIBnIaBYRg40yOS5TweJ4bhIQxW+keynGEYeMI733oREam/M89mpXc8eyY1lGe/9BTPPvuUNW6G07zJd59MlUn1Op/h2ZLjrKreOslTWSkk6Vmkyp18Nj3uqexcjJzpnuVMkeFPnfzZ9i8gkSKqeoxdj/9ZbhvzFEmfOIHvk2Pc9uw66+vrrL84ycv3Z6dZPM/YExBcX2f92Qd5+v6r8RBMln32QZ4fe9IKYE/g++Q8/S9a9TwLT+TMrAf/+rM8yF1MvrjOur/HapdVfv1ZHnz6ieLzfXES0m0vN59iv73UPBrJEr4JOGaamHE/+IazguslYh3HMM0gLsJ47D46F01Mq2ysV/nTIiK7wVsnv8fp67vosFIsbr0/mdrx5S8Pcfvp72XlE7/Jm7/1h5lxqTSQ+2/Nqu1W7i85DuAMzz75Xa4fsubx8Kd5c+apnHl892edyXFDt/Pmd//OCpTP8OyTy3RZaSdfHoLvnXyroL4/ZJnT27WgRDZQ5VM4evA/e5yrnzzBn/izBr8a52Ue5As91vdb/oQvPDjG8VeAWwDuYjL4J8n/9hziQV6m/fdusao8xIM8QfxV6CHOyzzP05+8mrFU3Q8eSlVS2gkfV9//tPXlLibTI7Lmm92mkvOpch49ftZ7Sk+y8xz4j3mxAdi8jLt9LMQhOcDB4CErWTqxSgw34y5rsoKyIiLSWpI9xN8F4HaGvnyQdIrymWf50kwqDL2eT6enuZ6uji0mMr/1M97kdu5NxdXXHeTe279L7J8g2YDr+fTvWiNv7eR2vsfP3oJb+Rlv8ian020Gbu9M1nf9p/nDW1PV3cvt3/3e1toosgnVP8au52Emn/gkvhPPbkNzAB7k2XU/Fcelr36dnvvh2fV1eniVr/d4ShUk/jKQjpOLzadEIkfF82gkCVZjQF+92yEiIvV3PZ9+uMiNfW+d5KkZGPryl7mVtzj51Dfr0rribmfoy/eT06f9llI2pDFs4k2Et/AnwUlevv9+nk4PsnMbT3M8FX+++nWeePpBDlXbO2vVUy6dIscrqzx/VzsfA3j1b5l/Pnvk88z/rVXXq3/L/PNWm6qdT6l51D0HOt8Ss8etPIzEcWaX3PS5ihSztdNJiIVU3nMiwESoRFkREWld//Qz3rz+t/gwwFsrLL9Z4/qv+y2u5zSxVALzWyf53unb6czP9Cgx3ffyn0933W9x/Zvf5e/OpKr7nlI4pC429yrvW/6E4ORdWQN68L84ycv3WzfZfXKe/her6EXOq4exT5a+KZAeDj2YdRNhz8NMMsYnr76aqz2r3JbdLO7itlWP1aYxbns21aZK5pM9y43m0UgcdK4MJ28MtPvoXAxSPCZ2EYz7ifVaNxHaZxmMlyorIiIt69bf5dN8lye/9CW+9M2fcf31JQvSeXv2jYKVj7v/4U/z5ox1M+CTy3Q9nNerXGJ+9z/8afjuk3k3ON7K/UO3c9qq75t0cXv1v1pky4z19XWz3o2QQk888QSPP/54vZshIiJlPPLII3zhC1/YtvoTiUTVbyLUq7xFtpde5S0iItLg9HpukcaiAFpERKSBqTdZpPFsLgdaRERERGSXUgAtIiIiIlIFpXA0sEceeaTeTRARERGRPHoKh4iIiIhIFZTCISIiIiJSBQXQIiIiIiJVUA60iIiIiDSFb/796/VuAqAAWkRERESawDf//nX+8N/cVO9mAErhEBERERGpinqgRURERKSlvfazf+Hsm+9w4Porufm3fqPq6f/f5Tf52fl309/VAy0iIiIiLem1n/0L34n+I//fP1/g8ssNzqy9zbef/wmv/exfqqrnd9qv5cNXfZDLLjMA6znQjZKQLSIiIiJSSqU50K/97F94+dx5rvnQXsBg7a13csZ/6IoPcPHSJbpuurqqHul33rvID1f/SS9SEREREZHGV+lNhKl0C8MwMM2Nw1zDMLjmQ3v59O03VNUW5UCLiIiISMv4t13Xb/s8lAMtIiIiIlIFpXCIiIiISFNolPv2FEA3iYWFBYaHh+vdDMnz05/+lI985CMtN69Wo2UnjULbYnPT+qtcqy8rpXCIiIiIiFRBAbSIiIiISBUUQIuIiIiIVEEBtIiIiIhIFRRAi4iIiIhUQQG0iIiIiEgVFEC3hDAew8DwhIsMdxJI1KVRVWqmttZYIoAnkADCeArWYaWsbSDr49ymhRn25M5nu+cnm7Gd+4St1p1dbhf/3W9R2FNsHWzLnPAYHnZiTs0vf3tOEHDu1HpqNls4ZoU9yWmcATa366jNfkcBdMtw4Ij1or/T5pM4PgvtNkisQod9CzU58MdNTNPENBfp9Nkr2HFXvyNxBTPzcGfNM+K1baHtUntb2SeU2y60v6mrRICJmBt3bKKKv93dfrKy878/7LEzOxjHDLp2bqZNZZPHrN4Q7kUTM+Jl60edzW8XCqBbyOC4n9jEZs/IZMdZZ9F23xKhXgPD7iPks2M4AzWo3EUw7scRWlDP0S62nfsE7W/qJ3F8FgYPc3gQZo9rDTSiRMBJL4vqWKhYNccsx9b6mmpkDyTfcictwO5lvNNgOHCo+B9tIoDT7mPJ+upeNEmeGIfxGBN0LA4y25sc7140ObzqxO5Llnb445k6c+pxs2gGKTy/ThBw2rEmz8yrZBuqbKu/E58vlNe2jcYlL3n2htIV1r9XwBXENA8T8BznUNBL3OOBYLFluUm2Qww6fCyEg7hcxX4/eIxeQgB2A5+1TKpfTsl1vTKetS7DHoyJDuKRdo7kbVvVb0uyaZvaJ4SLbhfV1W39LcYjJEflf5fNS3B8FgaP2bAxCMPHSXhTPXGllvs4K/Yi67TS/XHaxvvY4vv95DS4IRTqTP6NF/27r8VxqFT74pVt07Vy3IN9dpB4JG8eBW0+zGrJfWctelebTN4xq3B59bGQtR5nre2h+DGrkn1Qhfu6EvYADAwM1OCXSyNwBRdZMIYJHMo/UIXx2H10LppE0humk0B6Y1rCNzFI3DSxhT0YvQYxfxzTtCX/oHuPEPZaOyj7LINxk4gNCHtwBhK4cmaW3InODsYxI7Yq2lBFW1fGMc1gXts2HucKmphBq35jgsBhVwMczOOs0I6XBMfp4NA2zqnw90cImouQt1OpfjnZ8I67MRbCBF3JtRBeCOEeN7ERJmfbSgRw2lPbZyXbkmzVZvYJxbaL6uqWbZM4ziyDHLMBHGKQYY4nvGWWv6vIOq10f5yv1D621H4/OU2swzqelDyGWHVv6ThUun2VbtNbt4TPt4R70cwLgIu1GSIl9527XbHlZSdSk2NWSrG/i8ophaPluAguduI7kncRJLFKDDd9qZMrm5dx9xIr8VQBB/5j1hmvqw83DgYPpbbOPtzEWE2k6lnCZ7cS/3tDLGUqseZ1nNklN+P5W2PZNlTR1sOuwraVG5e68SB1xllX1s0lRi+hUC+GYccX8mE3jBrnlWZd6qr0929mObn6cKcvvYVZiPk5nD6Rz9q2stdlJduS1MBm9wlbqFu2TTJ945AVYNk4NMjmlv+m13+JfWyp/b41Tfp4suHffS2OQxsdH3aCA/+in1hvXl5tqTZvuO/cjaxjVjXHhzod23MC6A99dX/RjzQZ12H823qDj5tFM5X4b9Y/FaISiQDOXqx2x/E76t0gG96ISdzvSN4MsejG4Y9jmuUuoVYhcZzZpU7abVT++ze9nFwc9seYCCRIBCaIpQ/wBTNgNZb9vQm3pWa0nfuEbd/fSEaYI74llnz29JML7L4laLp7HWrxd9/A+w67l8hiJz57/tNLirW50n3nLpB9zAIqWsd1PLZX1AOtILrZ2PAe8xPrzTobs7XTSYiF1F9zIsBEKKv3oeKqk/VMbHTLqu0Qg44iZSptQ63ami2+wpKjAztYf6RbqKuG4ivJB28kVmN0ttdyt5m6PGultlT6+7ewnGyHBmH2CEdmyfQaAbCUudHJ6qXqc1HZtiQ1so37hGJ1Y6fDkdWbGV5ogKs+LSC8QMjhJ54dVJhx/I7Ueqxiudd6P1tqv19ivlv6u2+GfYcrSNwfozf1qLUN2lx637mb5B2zKl3HJY9Z278PqjiFo1TvtILrBmXzciznVCx5h2us17ocYp9lML6ZG7aS9ZDVA1L42Bkb3oj1SBqrTLJIpW2oVVuzqzyMn2SKhDG8Qmfde6CTXMFk3pXNG6lBz3PW5S5jgo54Vm92yd/vos9tTecJb2052byMd4YIdY7n5ZI56FwZttZl1g6yom1JaqaqfULedlF13cm8+FCq7gVw1/TH7E7hhRCOgh5KG4cGHYQWwmy83PPXaa33s6X2+/lq8Xe/mTqq3KZrwOaNsNjpw+4MkNiozSX3na1ug2NWpeu45DGr0n3Q5rcLY3193bzssmQc/aGv7oe7/8/CUrGvwL/8vGQlv/j82yXHvfK1e/nEF59Pf7/rKy/xvc99rHSLnnuY/X/wdPlyu9CHPvShejdB8vz0pz/lIx/5SMvNa7PCHoOFvuydYGM8faEZlp3sDtoWm9t2rb/CfWfza/VtvbIe6A2C54089/B+PvHF53nwW2/z9ttv8/bb30LP+xBpUYkAE7v+BhgRkSpp39mU9hQM+eH/WpuaX/ka/+lp4MFv8eR9qYH38bnP1aZ6EWkUqWe/OvDHI7v3BhgRkapo39nMCnugx8zCzya88rdzPA88+Jn7ihd47mH279+f/tz7tVdKlkmNe+Vr97J//34efg545Wvcu38/+++9N/nv/v3s338vDz98b6beh5/LnVd22Xu/RrLW53g4qx3paUSkQskniphmsTQNF8Giw0VEdruN9p3S6LbtOdCv/Ph54C5+u1gas5XnzIPf4u233+alr9zF81/8BJuLXQcIWXXA8zzN/8bbb7/EV+4Cnv5P5MblWWWf/yKB5+C5h/+Ap7mLr7xkpZk8WSLgFxERERGhWAA9aRR+Nu15flysY/k7TwOZ3umP/d4AdwFPf2cTEfRtdrJj9Lt++2PAx7DfVr7sy/FX+NhvJwPvL36iRC+4iIiIiEiWbUvhuO8zDwLJILWRfexz3+Ptbz0IwPNf/ERWaoeIiIiISKHte5X3fV6SmRLZqRnP8bWvvVIQXJfLl37e6sZOpoVsR1uf5O23v8WD21O7iIiIiLSQwqdwbCllI9vH+Nz3XoJ7P8EX/2A/T1tD7/rKS3zuvid5+1uw/w8+wf4vZoY/eR+QncVxn5ev3PU0X3z6D9j/NNx1VzLdopaee3g/f5BqHHfxldDnaNSnT7/4Zr1bIAUu/whXnj/PK+9e1VrzajVadtIotC02N62/yrX6slpfXzfffvttfZrg88IbpvnCG6b5yevRvw307/r6+o7Nb319ve6/t1n/3cn1pH/1r/6OW/dfrb/K/23l/W7OmwilscV/+SH+w782+KsfbS4vXbbHx/7Vzp1h7+S8Wo2WnTQKbYvNTeuvcq28rBQ5NxkFzyIiIiL1pQC6yfyHf12rHHURkVLCPH6DwZ03OJk5u0Gx73u48waDO2/wENmppkmD0DYiu5sC6CaT3wPtmD3Nnd84xafmYulhd37jFHd+4xTdf/2jnLL/9v+Jcec3TuGYPb3xTM4GGCm3UywqzOObmm4X+76nwQ8stVunayEndx4OZ/5/g1F4YE0fbA1GQgkAIocz/5ed5ObJNyIMHdigyKeCvPDGIgM71SRpMNpGZPdSAN1ksnugHbOnee/XlwA4/95F7vzGqZyypmmmh935jVO8/auLALz360t5ZfOCpANeptM7RQXF2yPBzGcM7gyzOw4sZwM8+u1BFo64ADgXX2JgxuSFN0xeeCOIE4Awjw/Bk2+YvPDGIrZHh5k5C84jcXq+PaxtUEREGoYC6CaT3QOdCp5f+Hd3FJR74d/dseHwYuNkJ9kY+o7JC0f66t2QHbH23Cx89hBt6SEObr4lr9D3F5h7oM8Kpl388WNw4rkEYGNotJM//1p45xosWZIne49/P2vQ9z3c+ZkAa3Vrk4hIfe0BmJubq3c7pAJdvzdc8BSOVCD8wr+7I6dX+ff/65mK6338hl7mAO42+PMHFnnhCDx+wwQ3/3Cc1+7OH+dKpnjc7SOVCDIwY/LIp4pUXGk52bKZzxi8Npq1fL/v4c6pDha+4+XcYYOHn7GGp9YhYR6/YQIegLlnOnnyjSBOEsx8xs6fR5NFc9bXq5l1eftjcabdNiCZXlG+7sO8/m3oecpmFUzw+pkl/vxugz/Pqm8tEeN2++H0b2qzdXI6HAdscEsHt59ZZQ1XVhAuO8PG0KibO8NhHvlU8gpCJBxiYNTUuhCRXWsPwMDArriI3NRSJzn5OdD5aRsp//X3by06PvbzXwJgGAa3XXMFAI+8sQg3THDzDzNpG0muouMev9uHbcZk+lNYQbKTmR/m58FVWk5qYaMAp+2IyQtHIBXYznzOZa2DJRL2OC+8YQMreD7x2TgvfMeWV/sSfz41yMIbJm3f93Dn0BEi7mTahbOiusP8XbST3z2Qqi/Z+z5EarphZu6LcM9GP/BAO7boAudAQVs9fKqPgaEFIkdcOAnzd2f8/PGRejdKRKR+9gCsrq7Wux1SoWLPgc7vfYZM4Hz5ZblP7Rh+bjVnuqqdXSWBm4dSPZMHvDz0gI+/exU4sIlyUhsbBTjf93DnUMj64uDP0hM56LnPCpbPHudE1M1DBcGzNc1T3mTg+qk+Bpjg9bPgPFBh3Rty8bsP9HL0ucTGATR2bu6OZeYrO8zFHz82waOhBDcyQeKzx3QiIyK7mnKgm0yx4Blg6n/ITyhN+sbvfRyA5/+n3GD5B/ffvg2tk/px8cePxTgaSrAWmiCRyjc+G2AkfWNenD/rruEsa1i3zWZLpmzE4+lhyZQOu/UtzmvRTm46sKUWyxa03TcI3z7Cf/52Jw+5Kzk5EhFpXekA+tKlS7z44ossLS3lfF566SV+9atf1bONkiX7KRzZPcgHP7o/Jx869fnYVR8E4DIjd/i+PZs8dzrQjo0Qf5e6oehsgKPPuPnd/NzmSstJzRQNcF5d4XR3BzeC1ctcYuIDh+jpDnG0msfFVVp3Vu9xgbMBjj5j3VB4Swe3P7NgPdIuzH9+lKwe8lUSqXlJfRw4RA8h5m5N3egpIrJ7paOo999/n3fffbegwIULF3j55Zd3tFFS2va8idDF7z6QvKkr9Zze0uNcPPJDP4kh6xm+d8/S88NgkQNqpeWkZooFOJ86zJ/ho+8Ggzv/dAVbyV5iG0PfWcT2qD39HOacpy4UU0Xd93w29UQNyLyAweDOu33YZqy8+ANepmfg4RsM7ryhF2ay8uVfXeH0re1KG6ir1JNjXPVuiIhI3Rnr6+tmIpHgvffe44UXXthUJXfffTeXXVaqR3ONmZF+ppatr12jzE8PNcaBcG2Gkf4T9MxPM9QQDSotFosVfQqH1N/H/tV5Xnn3qpabV02dDTDyp/DYd7yb+NtPMPOZYXhqazegNu2yq4uw9XQeB3+20Y2/6Rx4t/UkF6lEa2yLu3cbaY31tzNaeVnVJID+nd/5Hfbs2VM4Ym2Gkf4p7IEoY87MsJlzQwzV9K8owmT3UQ5sWyC83fWXlwqgpfEogK7MWshJX3y86h7MyGGDh1nccs9nMy87aS3aFpub1l/lWnlZFYl64fOf/3z6/1/96lcrHpdrjZlH84JngLahhu/tbWTqgZZm1eaOsJlTdOcRc1PTiYiIbJeSd5J99atfLRoglxpeYO0HnFge4OBGPc1rM4x0d9NtfSYjqRERJrtHmJmZTI8bmUm982qNmZHsaSJMdnuZY5mp/m66JyPp6ScnR+juniQCRCYz03SnZ2TNZ22jeRarP78N5RdHrfzVj8z0jYT6tzH+Tal3O/Sv1pP+1b/6V/820r8p9W7HdvxbNIXj85//fNkgObtM0RSOtRlGHoXHSuY7JwNTUj3UOfnIVtA6ECA65oTIJMmiYzgjk3SfPJgcnlNXdopFcvr46DzTBd3d2WXz/19invn1F23D9orFYvT17Y7XPouIiIg0sqIpHDWzfLb0m8PWXifOAA+lYtC2IR4amOJkeoIuRh+wRjoPMsBRXl8D540H6JrzMnKgWHCcrYuee7LGRybp9s6lx42WmKboPPNnU3Ebauuqq1ozj6jZnT9/fsfWzU7Oq9Vo2Umj0LbY3LT+KtfKy6pkCsfnP//5nHzncsMLtN1DT9ccJ2ud3tA2xHQ0ymM8Wnn6xNoMI14IRKNEo/OMdtWhDSIiIiLSEor2QG+UvlFR/jMAbQw9NEC3tzuTpgFZT+G4CTtTnIyM4bRSOI7ODfDQWIW1D00zzwiPvr5G2efinDvLcteB5EsY1n7AiWXoqfBXVN4G3RkpIiIishvUJIXDMIziI5xjROcPMNLfTfodC12jzE8DOBmbH80a18Xo/HT5Z0TmpGIMEIi2AW0cHPDi7e9maiBAND8Idz7A6NF++runoGuAgap7oJ259R88WaQNIiIiIrIbpG8iNE2zdCAsdReLxRge1nOgG5FyoJuDll01wniMXkI48McjeG2linkwepMvyVg0g+gdhZVpjW1x924jrbH+dkYrL6t0DrSC5+a076nTGP5TfDgYSw8z/Kcw/Ke4LPCjnLLX/GUMw3+KfU+d3ulmShFhj4FhJD/OQKL8BHURxmM4qUXzEgEnhicMJAg4M7/dk/32+LCnYJmEPY28fFqZm0Vzg8AIwBXENBdx71ibpLFoG5Hdq+RNhNL49j11mgsXLwHw8wsXMfyncsabppkeZvhP8c/vXgTgwsVLBWWrV7vAaldKBFjtMzFNE9NcpNM33NrLMhFgeHaQeNAFxGkft3573E+s10Myhg7j6YXFvGXiCsYZnG3x5SMiIk1FAXQTSwXPpu+OgnGm744NhxcbJzvI5sWbvpZpp8NRz8Zsv8TxWRg8RLKjyoUr9dtt7XSmCoUXCLn7rEu8Lg77YfZ4ArDhHe/EdyScX63siOQVg4IrBc4AOqcRkd1KAXSTSwXC+QHxzdNnuHn6TMX1ZKcTGOkjZX4vc+p7KvdtCZ89q3wigNModmk+OZ3H48QwrN7GnLKpHsjdKs7KUiftG10GLWOjAGejdZuzTjZKrYhn1ld2OkVldSdIxs9FfmBW0JxYjeHosKdH2do7WVqJJ7/YO3DEVhWw1YUN77ib0EJmgwgvhHCPe9nCJisi0tQUQDe5VL5zfkrGayO38trIrQXl/+GNX/IPb/yS59+8kDPcFcykE7hDE2Uul7sImou4ceCPm5hBFxDGY/fRuZh9aT47+F4i1nEM0wziIozHPstg3Cq7CBO7+Pp82NNLzH94SzfXbBTglF632eskQcBpZ3YwbpU1Cboy5XwTcMw0MRfdLPmOpE94Kqu78AQhEXAmg+6FPmv7KcPWTufSCvEtLCPZAlcf7tBCOtVmIebncCvcDSYiskl7ANrb2+vdDikjFouVHGf67igIoFPf91yWe3Po3X+9mjNdWvpOaQAH/mobmFglhpvx9KV5L+NuHwtxSHZTOTI9kIlVYiwRshv4UtO7+1IFd5FM0BrZ8C6cCrj6cPcuEA66cKUCnKA1ruS6zV4nx5ldcjMeKdYOB/5jVm+jqw83E6wmwGWrsO4ibN4Iptea3pjAH49waMMfaKfDEcvMV3aYi8P+CYYDCexMEBs8tuv+WkVEsu0BmJubK1dOGlQqCP6bz97C//jtVwvGn/qjjwNw0XsHewKZIPsXn7s9UygRwGndvJXsidyJx+W1ziONNsdazsdMisasVSsR4Gznuq1F3a4gi26DhTh42ztZypxxWSkdh62CyV7sPkVtdWM7NAjDRzhCZ4kTLRGR3WMPwMDAQL3bIWUUO8nJ7kH+7C37S+ZDA1xuFB8OQHyFJUcHdrB6ImEQSPb6LbGSimnCC4SgeO+0rZ1OfCyEg8kbxBIBJkJuxoOly04EDuPaas9rswofwdc5jlnDn180wCm5bgsmZtBR5TqptO783uNwmLDLZZ08hVkIOUjGyR04Qple9CM+GIxnXbVwdHC4aP2yI2yHGMSHr3ORYn/WIiK7yR6A1dXVcuWklbkO45+wYzd84HDjTj8RInnzkNFrEAJwu7Oe5emiz91Lr93A517EDLoIxv047QbJpJHkw/WL9zCnytoxUjkcVh27RWI1BqEQRigzzOHfYipHsQCn5LotmI6ymbgAACAASURBVBhvZJEVI7NO3IvZedBFVFH3oUEYPp7A67WBfZUJo5deMvNJ/mwvkUVP+pn0meEkg/XOPqUN1JUNb8TEW+9miIg0gPSbCKWx6U2EjUtvIqxAIoBzGI5FNvPkhlS6S5kXNpTRtMuuLnbvW+Z2Qmtsi7t3G2mN9bczWnlZpQPoS5cu8eKLL/Luu+/mFLjiiivo6upi7969dWqigALoRqYAujKJgBP7ynjVVxrCHoNetn6FopmXnbQWbYvNTeuvcq28rPak/vP+++8XBM8AFy5cYHl5meuuu65oBVdeeSXXXnvt9rVQRFqCzRvB3MR0rqC5qelERES2S0XPgb5w4QLnzp0r+jlz5gyXLl0qMlWEye5uurM+IzNrtWn12gwj3SPUqrpkW7PrW2NmpJvuyUitZiAiIiIiLWJP+SLlXbp0icsuKxaLdzE6P81QWy3mkqVtiOnoUI0rzYhM9nOiZ55ozRu+NefPn693E6SEnVw32g42T8tOGoW2xeam9Ve5Vl1WNQmgW8nazAheAg0XPAMtm0fU7JQD3Ry07KRRaFtsblp/lWvlZZXuNjbNHcwyXJthJCu1I5MpkUylmJwcobt7kkhBWWtYfspFVpmRmZmscVa5mcnK0kh+MEn/iR7mx5wbtHeSiJXikZPhEZmke2SGtVT6R8FvExEREZFWUFEO9OYtM9WfH0xGmOyfwh6IEo1Gic6PEvdm5x8vEz/wGNHoGE4iTPafoGfeKhuAowUBcG59j3GCufw2nD1oTT/A8tQzFI9pl5mammPgoSFy+56LtQGGHhpg7mSmpshJa9rIM0zZA8my0Sj5sbiIiIiINLdtDqC7GE0Fnqlgcu114gxwMBVYtg3x0MAyZ89lpum5xwph114nnh2Ee+dYzhTMlOka5QFnqrqHyH2vYhejqZHOgwwQ5/WindBdjAbyg/kN2uA8yMDcyXSP+Mm41YYbD9A1563dDZMiIiIi0lC2OYCuhQEC0UwQHt3OLt0bh5gO2Jnqn8zrpS7WBicPjMY5OrPG2sxR4j33JHuu24aYjkZ5jEeVwiEiTSqMxzAwDCeBjd6zFU6+OdIwPIR3rG3SGLSNyO628wF0203YmSOd/bA2w9G5rB7pImUL0zbyyixP8UwkVd3RvBSOKjnHmB+N4x2ZYa1MG9ru6YETz/DMCTK95qlxQ9PMj3YRL97dXTP7njqN4T/Fh4Ox9DDDfwrDf4rLAj/KKXvNX8Yw/KfY99TpTc4tjCe1s0wEcJbbccoGEgSchnVgMfA07JEla51vUSLgxMj7oYmAE8MZIF19+mBr4LRmGvZk/i87yc2iWebtj64gprmIe8faJI1F24jsXukA2jCMTVdS3bROxuZHiXutlIj+E/TMj1G8XzlZlqn+zPOkC7p0nYwFBpiz6nuUnrwUjuq1DU0TsE/RPzLD2kZtaBviIfscc/aHMo/qi2RuWOyfsvPQNj7NY99Tp7lwMfkM7p9fuIjhP5Uz3jTN9DDDf4p/fvciABcuXiooWzWbl0h6x1m7IGv3iNM+bmKaJmbcT6y3xXtnEgGGZweJ57xNMMwR31LOd08vLJomprlIp2+YQAJcwTiDs8PavkREpGGkH2O3d+9errnmmqJvI9zIvn37uPzyy4uMcTIWLZFuUfI5zkWmKVE2p5xzjGh0LPn/tRlGpuwcbCtWX6k2FQ53jkWJlm1v0sDBEm3ZZqng2fTdURg8++4AKDlc6s2FKxVL2trpZKWurdluieOzMHiM7I6qRGAC/H4cs9aA8AIhdx9BAFwc9k8wfDyB12vDO96JcSSMd4uv85bNSBBw2lkZN0kv/rAHY6KDeMTLRp2PIiKtKqcHuqOjg09+8pNVfT7+8Y/Xs/0FIs9Msdx1gBt3YmZrMxyNZ25grIdUQJwfGN88fYabp89UXlEigNMwCnPVsoY7A6tZE6R6ncN4jF5CLOGzG5lL9Dn1ZacoJKfzeJyZ+ZSa925hBY5bCQ0Dzrw0kLAnnRoR9mTWQyaFosh62CitJJ69HSSyZlNJ3QmOz8LgoaxQKxFgeGWc4KGsQasxHB329HdbeydLK/HkF3sHjtgq6oSuBxvecTehhcwGEV4I4R5X8Cwiu1cT3ERYTu5zl71zAwSm8x9Ft03z7D9Bz2PbPa+NpfKd83uaXxu5lddGbi0o/w9v/JJ/eOOXPP/mhayhYTz2WQbjVkrBIkwEEtZwH52LyeHHmCVUUKOLoLmIGwf+uIkZdBVMl0xRyE7xWCLWcQzTDOIqOe/Wlwg4k4HnQp+13DZvowDHFbSWrbmIOzRRYj0kexlnB+NW2azeRpbwTcAx08RcdLPkO5I+yams7jgrS520p6OtBIHhWQYPV/Gbbe10Lq0Q39TSkS1z9eEOLVjrPcxCzE81q09EpNW0QADdxtB01hMyoqXyqbdjntvwmvJNKJaWkQqq91yWm59+91+vcvdfr/I73/hxZmBilViqB9kwMHpDyZ6/xCoxR+ZAafOOV3YjSGKVGG760ikKXsbdS6ykox9Hpjey1Lx3AZs3kgw++xbK38lezkYBTvrGvN68E6Ds9XCc2SU340XvBnLgP2b1Nrr6cBNjNdXWSurOkwgMMzt4bOMbjwrY6XBkzVd2mIvD/hgTgQSJwASxwUPqfRaRXa0FAujdLRU8/81nbyk6/tQfJVNsLnpzg+xffO72vJJu6+Yt67Ojuab1nHcDcAVZzDnB2FQlxQOcRABn+sa8OH5HbZrMputO3ji45LMnA2+7j6UlH3ZnALJTNshP6cjvxZadZjs0CLNHODLbWeJES0Rk91AA3cSye54/e8v+nHzo1Oe2az8IwOVG7vDf+EDWqre100moMHXC1k7nko8j6bTmiSIpHEVY9aUzChIBJkJZPdJFyu6WtI20cDgr1zvMQshBVvrvphQNcOIrLDk6sIPVy1xyYgYdVa6HSuvO6T12Ecw+WYr7cTj8yZvR7B04snrRj/jIvVKRmpfUh+0Qg4QIdW4tX19EpBXsAWhvb693O6SMWCxWvtCmuQjG/TjtdgyfNci9iBl0EVx0Y/QahACH34+b2aLT97l76bUb+FLTxf047QbJBBIH/nikxEG39Lxbmn2VCaOXXuure9GsMqWhCNshBvHh61y0nmQBuA7jn7BjN3zgcOMu2UtswxtZZMXIrAf3YnYedBFV1H1okPQTNUq330tk0ZN+LGbOMomvsNTZp7SBurLhjZh4690MEZEGYKyvr5sLCwv1bodUYHh4uN5NkCLOnz/PVVdd1XLzqqlEAOcwHNvUY88SBJITb+kko2mXXV2knq6TPPktudzDHozeEMk0rKB6pivUGtvi7t1GWmP97YxWXlbG+vq6edllyuRodHNzcwqgG5QC6MokAk7sK+NVX10Iewx62fpViWZedtJatC02N62/yrXystoDsLq6Wq6ciMiW2LwRzE1M5wqam5pORERku6jrWURERESkCulXeV+6dIkXX3yx4FXeV1xxBV1dXezdu3fHGye5zp8/X+8mSAk7uW60HWyelp00Cm2LzU3rr3KtuqzSAfT7779fEDwDXLhwgeXlZa677rqiFVx55ZVce+2129dCSWvVPKJmpxzo5qBlJ41C22Jz0/qrXCsvqz3liySD6HPnzpUc73A4KLwRMcJkt5e5rCEDgShj5V4TGJmk2zsHXaPMb/sruUVEREREqlOTHOhLly6VGNPF6Lz1iu3AAHPeSSIb1hRh0jvHQCBKVMGziIiIiDSgnbuJ0HmQAeK8vlauYBcHbtyJBomIiIiIVC8dQJvmNj8oKnKSua4e7kl1K6/NMNLdTXd3N93dk0TSKR/LTPV3MzKzVqIcJNNDRpicHMkM26DczMykNTyr3mTlzIx0p8dNRkq1bYOydWb4T2H4T6W/n3rrQnqY4T/Fqbcu5JTbE/gRH/ra6ZxpRERyhfEYBobhZMO3u4eTb440DE/Wq+lld9A2IrvbNvdAJ4Ph7u5uuk8ezErLiDDZf4KedHoHHJ25kbFogAEr7WN6qK1EubV03fEDjxGNjuEsU27q7MF0Gsny1DNZAXE/J3rmk+OiqfzsEnVFnmHKHsgrW1+G/xTDHdfkDPvEf/kx//wfuzB9d/DSH/02n/gvPwbA9N2B6buDdz9/Oz956LZ6NLcGwnhSO+tEAOdGO+5y4xtIIuDEcAbYUlO3+HsTASeGJ+vwFvYUP+DlDQ97DJzNsJBlE9wsmmXe/ugKYpqLuHesTdJYtI3I7rXNAbSVAz0/StfcyUz+89rrxLODa+8cy2eL3KS4YbkuelLd2WXKjT5gRbvZaSRrP+DE8gAPDbVVNs8bD9A1583rwa6v1/59B0/fl5vvYvru4OoPXg7Agf2Fjx40gav/YhnTd8dONHH72LxENtpxlxvfMMIc8S1tvZqKf2/WSUhKIsDw7CDxoIvka7MNjAXyDnjFh7uCcQZnh5viREVERKRWdiYHum2Ix0bjWb3CAAMErN7caDRKtGSXbq3LVaJIXW1DTEejPMajDZPCUSxAzvabf7HM/373Denvhv8U/13oZf6vgx/d7qZJhRKBCfD7cdSzDcdnYfAQydjbhjdiYgb78kptMHy8E98RXZxtXcmTp+wLFIQ9W79qIiLSxHbsJsK2oYewTz3KzBrQdhN25vIC6mIT1bhczjT30NNVZJoydbUNTTM/2kW8/N2QdbP+3q8x/KfwfuI6/o+sANr03cE//c+d/C8n/xHfyX/MmSbsMaw8NSPrUr7VWxnwpMdlLtdvNA4rpSBTp6dcfJVTPit1IGu4M5D9yvlMT2oi4My0Pd3+vJ7Wku2p5nfUOIcvEWB4ZZzgoVpUlv17S/2mMB6jlxBL+Oyp5ZQgGT9voave3oEjtqpgqmXZ8I67CS1ktv7wQgj3uJeGv8AjIrJN0gG0YRibrqSyaZ08MApTj86whpOx+VGY6k/flNddtEu31uWytTE0HcCeNU1ykhJ1RTI3IvZP2QtTPxrEqbcu8Jt/scz879+Mv0RPs+m7g8BLb+UMcwVNTNNM5qqFJrIuyS/hW+lLjlt0s+Q7khVElhoXxmP30blo1Rn3E+vdKD83jMc+y2DcKr8IE6mAL6ueY8wSKjK1zRvJtB03i0FXkfo3as9Gv6NYu2ohQWB4lsHD+W2tlWK/yUXQXMSNA3/cxAy6gDgrS520byUSsrXTubRCvFZNl8bj6sMdWkj/XSzE/Gzbpisi0gTSL1LZu3cv11xzTdG3EW5k3759XH755UXGOBmL5qZRtA1NEx1Kf2E6/SUjf5ralstvk5OxaJSx/ImK1uUkGi0o2XA+8V9+zEt/9Nvccd0V6WHr7/2a38zKe049mSNH2IPRmwpPHfjTIxz4U0dKVx9uJlhNgMu2wThWieFmPHWAtXkZd/tYiEPRLqvEKjGWCNkNfKlh7r7kcIefY65UNeO4fRMlf3vY0wuLJgXH9US59mz0O4q0qwb9bonAMLODx4jYYHu6bjdab7Vmp8MR28b6pf5cHPZPMBxIYGeC2OAx9T6LyK6WDqANw6Cjo6OebZEq+U7+Y7on2fCf4qU/+m2A9JM3UkzfHQx3XJPz6LpUWSCZptALi6aJiwQB5/D2N76Am0UzmBv8JlZLFS4U9tDLImbNe8WKtGvLkjcOLmHH8GWG2p1gRrw1ndPOSPZi9ymiamm2Q4MwfIQjdDIe0coWkd1t516kIjXnP/jR9OPpTN8d3HHdFTnfUx+Ap++7kdf+fQdf/9R/ny6bFl9hydGBHSBxnNmtPhTC1k4nIdIpk4kAEyE3faWiUKt8QXqErZ3OJR+p+9MSgYmiKRwQxtNLkdSNTbanXLu2zEXQTKXMJFNKHA4/8boEz5ne401LrBJLbT/SumyHGCREqLOvxieUIiLNRwH0LnJg/17+4+0fLhzhOowfH3bDwBheoXPLj4RwEYz7ifVaN9/ZZxmMb9SLmyyPz553I6CL4KKbkFXPMINFnyUa9vQSIkRvatqCpwNU255y7WpmLvrc2TcR2jg0CLPHtxBBx1dY6mzXJf2Wl3oSi8JnERFjfX3dTCR0/3yji8ViDA/XI7VCyjl//jxXXXVV884rEcA5DMcim3mqgpXyc6zxn7m9k+up+aWe2OLAH99g3abvndiOVKfW1Rrb4u7dRlpj/e2MVl5WCqCbRGsE0Kkdbrbm36k2fQBN8lGA9pXxqnsXwx4jmXveBL2Srbwjl+aibbG5af1VrpWX1R6A9vb2erdDyojFYvVuQg0kc3+D9W6GFLB5I5ibmM4VNDc1nYiISDPbAzA3N1fvdoiIiIiINAVjfX3dvOwy3UvY6Obm5ujry3+NsoiIiIjstD0Aq6tVPG9X6qZV84iaXSvkQO8GWnbSKLQtNjetv8q18rJS17OIiIiISBXSbyK8dOkSL774YsGrvK+44gq6urrYu3fvjjdORERERKTRpAPo999/vyB4Brhw4QLLy8tcd911RSu48sorufbaa7evhSIiIiIiDaSiFI4LFy5w7ty5op8zZ85w6dKlgmkik910dxd+RmbWMoXWZhjpHiF7kIiI1FsYj2FgGE42fJN92GO9pdNDs7+jU6qlbUR2t5rkQBcLoJ1jUaLRKNFogAG6GJ1Pfp8eassUahtiOjpN9iCpzr6nTmP4T/HhYOY50Yb/FIb/FJcFfpRT9pq/jGH4T7HvqdM73UwpIhFwZl4R3rAHlzCecgfICiUCztxXoYc9hb87fbA1cGbPtMjwsCevjNSYm0WzzBsmXUFMcxH3jrVJGou2Edks6wTMk3/kyz7mFDv+lBu/0fDa0k2ETWzfU6e5cDF58vLzCxcx/KdyxpummR5m+E/xz+9eBODCxUsFZTdnZzbSVhVfWcK9aGKaJmaTv42xrESA4dlB4kEXydd/GxgL5B1Uw3h6YdE0Mc1FOn3DmZ1kkeGuYJzB2WFtfyIiTcmBI9ZLQQzdJNIBtGnuxPvEIkx2jzA5OUJ39yQR63s6hWNthpF0qsfMpsYl6y02rzVmRjKpJJORHfi52ywVPJu+OwrGmb47NhxebJzsNAcd9nq3YWckjs/C4CGSHVU2vBETM5j3XPPwAiF3n3Ui4eKwH2aPJ0oPx4Z3vBPfkSbd+4qI7HKD435iEwGasR+kDj3Qy8QPPEY0OoYzZ3iEyf4p7IFkqsdjnGCu4nEn6LFSRKIBOJqOrLPmFXmGKXvASiuJMpY786aVCoTzA+Kbp89w8/SZCmuxepIDJS6fJwI406kGhnW2GMZj9BJiCZ896zJMTtlGTUtoBAlWY9ayy1/emxBwGrln8WEPhjO5Uwp7Musuc7ksuc49HmfWerJ6hnPWsyWeWa/Zba2s7gTJ+Hmj67yQWI3hyDqjsLV3srQSLzkcAHsHjthqU+58RUR2PbuX8U4fw014KbEOAXQXPfcUSXpee5141ygPWIFt29BDDFQ6jmWm+q3eZe8cy2fPFc7rxgN0zXlzb2JsAal85/yUjNdGbuW1kVsLyv/DG7/kH974Jc+/eSFvzBK+lb5kOsGimyXfESuoCuOx++hMpRrE/cR6nQQSLoLmIm4c+OMmZtBllZ1lMG6VXYSJJvyj2BlWL2xBusLmeMfdhBYyEW94IYR73IsNcAUz83GHJrLms0Ss45iVPpIg4LQzOxi3ypoEXZlyvgk4VrBtVFp3nJWlTto3jp83x9ZO59IK8W2oWkREtp8ruPVjYD20SA70AIFoNN27HC3Wvdw2xHQ0ymM82jIpHCnF0jFSQfWey4yc4Xf/9Sp3//Uqv/ONH+dN4cB/2IqYXH24ibGaABKrxHDTlwqmbF7G3UusFItYEqvEyPSqGr2hTE+hbMBFn3vJSkvYbBV9uEML6ZOehZif1OrM3IDXSyhnIkemVzhxnNklN+NF7wZy4D+WDMZzto1K695WdjocWe0REZEm4yK42HzpeI0TQLfdhH15imeswHZt5mgmTaPcOOay0jbKzGZomvnRLuKvt0ZPdCp4/pvP3lJ0/Kk/+jgAF725QfYvPnf7NrXIbd3sZX2CLX1rXE11bqmL1sVhf4yJQIJEYIJYKt84EcCZvgEvjt9Ro8ZuQ905qRlkUjpKDU/axt5tERHZGa7D+AtuKLTTkX9cSawSozH2+ekA2jCMjcptaCvTZjgZCwww502mYjxKTyZNo9y4+VGY6s88b7pY93JkMj2+f8rOQy3w7LzsnufP3rI/Jx869bnt2g8CcLmRO/w3PlDhuZOtnU5CpLMDEgEmQlk90kXKKm2jSokAE6Gt31BoOzQIs0c4MtuZ6UmOr7Dk6MAOVi9zyYkZdFS57iqtu9JeYnsHjqxe9CM+K2+61HBI7kxTbRARkSZlw3vMT6w3+2qmjfbOJXzDmZsMw0d8LKVvKq+vdBS1d+9errnmGvbt21fV58Mf/jCXX375BrNwMpZ+1nP2/4t8d46l0zCm74E4dm6qZJyVnpGbwlG67sIbGKU0F8G4n1ivlZZhn2UwHkw/EaHPnX0TYbIsPnuRG8skV+olBAaG3UfnYplnqVbCdohBQoQ6s3YursP48WE3DIzhFTpL9hLb8EYW6cxad2VXXRV1HxqkfIqKzUtkEXqtlBBSy6TUcEgG8Z3tNEBnhIiIbIXNy7G8S5muYDxznDEMemN+63GoKVlpozk3uZcaXjvG+vq6mUg0Xo9hZLIbb3yU+ekh8vuKNxrXqmKxGMPDw/VuhhRx/vx5rrrqqpabV00lAjiH4VjEW8NgN0EgWWlFJx9Nu+zqIvWUHQf++AbLN+zB6A2RTN1q8WeZ11BrbIu7dxtpjfW3M1p5WTVQAL3GzEg/U8up7wME0j3FG43bHRRANy4F0JVJBJzYV8Zrlhcf9hj0slhxfc287KS1aFtsblp/lWvlZbWn3g3IaGNoOspQ1eNEpBnYvBFq+bomV9CsaX0iIiKVapyncIiIiIiINIEG6oGWcs6fP1/vJkgJO7lutB1snpadNApti81N669yrbqs9gC0t7fXux1SRiwWa9k8omanHOjmoGUnjULbYnPT+qtcKy+rPQBzc3PlyomIiIiICFYAPTAwUK6c1JlOckREREQawx6A1dXVerdDRERERKQp6CkcIiKSJ/WmTCcbvsAr7LHe9OVB7xzdbbSNyO6WDqAvXbpENBrl7//+73M+L7zwAr/61a/q2UbZwL6nTmP4T/HhYCw9zPCfwvCf4rLAj3LKXvOXMQz/KfY9dXobWhLGk9qRJgI4y+1Uq1G2vqx5N5mwJ/Wq0e1qf+2WTSLgzH01e9hTeFBMHywzr04Ne7bnNaqy3dwsmmXe8ugKYpqLuHesTdJYtI3kSp1UFNuv548zyOxOw3h0gtF00gH0+++/z7vvvltQ4MKFCywvL3Pu3Lmin5///Oc72mDJ2PfUaS5cvATAzy9cxPCfyhlvmmZ6mOE/xT+/exGACxcvFZStKZuXSLmdaj3raxBhj8FERxzTNDEb/fclAgzPDhIPuki+QtvAWCDvoBjG0xvDHzcxzUU6fcMEEuAKxhmcHW7KExwRkeo4rH2gSdwPvuEAiSLjzEU3oV4Fzc2sohSOCxculAygz5w5w6VLl4pMFWGye5JI1U2KMNk9wsxa1RPuOqng2fTdUTDO9N2x4fBi42QnhVmI+TnW0FFzRuL4LAweItlaG96IiRnsyyu0SswxyCEbgIs+9xIrcav8eCe+IzpUNKfkCVP2xQfCHgxndmAgIvls3nHcS7McL/aH4urDTYxV/RE1rZrkQBcPoGUnpALh/ID45ukz3Dx9poqarF7F/EtLiQDOopeccsc5A9k3ouanDVRS90Zn4tn1lagLIJ7dnkTutIHC1IK6Ci8Q6lzhSOr31yQYqXbZZKeQGFnpGcll5vE4rfWSIBk/lwn2bYcYJHWwCLMQctPnssbZO3DEVhVwNSUb3nE3oYXMBhVeCOEe99Icp38iDSi8QCjd4SDNSDcRNrlUvnN+SsZrI7eCaabL5Jf/6F+9nFU6QcBpZ3YwlU5gEnQBhPHYfXQuWpec4n5ivalANnfcMWYJFW3hRnXPMpi+nAUTlQS24SP4Ohfz6gJYwjcBx6x24stOGVjCt9KXvmy25DvSGJfNQjE6rN+/2OljeEuBfanlDDnLJu/3u4LW8jcXcYcmcpZZrOMYphnERZyVpU7ay+7obXiPDTJrNzCMXlgMkm6CrZ3OpRXiW/iFUkeuPtyhBWu7SV49OewqM43ILpcITOQFyUv47FaHxUIfZkQnoc0sHUCbVrC1Pay0jJlJuru76e7uZiQ7R2NthpH08NdzJ80a1909SYQ1Zkaypo9M0j0yw1rJ8oA1TWrek9XnlTS0YukYhv8UZ9/+VU6Z7HI/fef9TOHEcWaX3IznpxMkVomR1Yto8zKeuiyfWCXmyBxEbd7x4jeJbFh31s6kN8TSSgXhlb0DR6i3SC+yA/8xa2eU3c7UuFRDG+mymXs8nffs6nNX9vtLKbWcgZxlk//70zf99eadADnK9zgXtCGAc9gK1E2TvoXsXnA7HY4GWe6yCS4O+2NMBBIkAhPE0uk8IpIrc1yz+zpZzAmSrRzouB9H+oRUmtUO9kAvM3X2INFolGhggOWpZ6zgNsJk/xT2QJRoNMpjnCDzypAIk/0n6JmPWtPB0RkYmg5gn3qGCBEmvRCYHqKtZPk1iDzDlD2QHBaNMubcuV+93VJB8d989pYNy6R6nhsr99nNommme0zNYAVdWjYvEdPkGMOFaQppCVZjxYZLjkQAZy/WOojjd2yxupw86eRJQeayf6W92NKobIcGYfYIR2Y7S5yoiUjOjYJm1lW4bDYvx6wTUmleOxhAdzH6gBW5Og8yQJzX14C114l3jZIa1Tb0EOn3Iq69Tpxlpvqt3mPvHMtnzwFOxgLg7fZCYAxnufI3HqBrzpvb690CsoPhz96yPycfuqpA2XaIQUeo8I/Z1k4nIRaycpYnUnmttnY6l3yk7gtLBCaKp3CUqXuzOxCbiiechwAAELhJREFUN0Lc7yCW7tJcYjZ1p4bVG9vXyJeYXX1ZKRMJAhMh3FtpcKnlvJH4CkuODuxgLbNSBSvrPba1d7I0ezyd5xxeCOHosCe/JFaJpeYlzcl2iEFChDr7igcFIlIxm3c8/aQiaU5NkAM9QMDqOY5Go0TLdh8XKd82xHQ0ymM82pIpHOWkep5TPdGFbHgji3T67Hk3oLkIxv3Eeq00C/ssg/HUGbWL4KKbkDVumMESz/ncuG6yhhvFu5NzZT1n2O7L7glz0LkybLXTR+diiTP/huEiGE/lC9vxdS5SSQd8aaWW80ZNOIwfH3bDwBheobNkD7SNQ4NkTlBK1hckPjibrM8w6GWRSGr9xFdY6mzXZf+mlnr6SmP/ZYk0BxeHCx5zJ83EWF9fNxOJBO+++y7RaHRTldx9993s2bMnb2iEye6THIyO4STCZPdRDsxPM9SWGpf6HmGy2wuBZGrF2swI/VMwmjUuPjrPdHLCvLoPcjI9j9TwYuUz1mZGeJTHSo5vVLFYjOHh4aqmKXgudF4A3VjpHM3r/PnzXHXVVS03rxyp/OZN3fSSIJCcuK7Puq7bsmtKYTxGLyEc+OMbrLewB6M3RDIdq9FPWhtHa2yLu3cbaY31tzNaeVmlo17DMDZdyVamTaZjDNDt7WYO6BodZYATmXHzo4z099M9ZQ0aGGU0PkV8dJ4x2rhx9Cj9IzPMTw/RVrR8gOjBk3R7U5nVAwSizRU810JzBMupHXK21tnpNjWbl2ODTuye9qp7IMOeZA+7qe7nJuIiaJoEyxYLYpplS0lL0jYiu1u6B9o0Tc6cOVP0bYQb2bdvHx//+Me3qXmSspke6Jv/75WcJ3FkO7B/L6/9+45aNG3X2xU90C1Ay04ahbbF5qb1V7lWXlY5PdAdHQqoWokCZBEREZHay09clgZ2/vz5ejdBStjJdaPtYPO07KRRaFtsblp/lWvVZaUAuom06mWQZqcUjuagZSeNQttic9P6q1wrL6smeIydiIiIiEjjUAAtIiIiIlKFPQDt7e31boeUEYvp3dQiIiIijWAPwNzcXLlyIiIiIiKCFUAPDAzUux1Shk5yRERERBrDHoDV1dV6t0NEREREpCnoJkIRERERkSqknwN96dIlXnzxxYJXeV9xxRV0dXWxd+/eHW+ciIiIiEijSQfQ77//fkHwDHDhwgWWl5e57rrrilZw5ZVXcu21125fC0VEREREGkhFKRwXLlzg3LlzRT9nzpzh0qVLRaaKMNndTXf6M8LM2hZbuzbDSKl6NhonIiIiIlIjNcmBLh5AA3QxOh8lGo0yPwpTj85QXXwbYTI7KG4bYjo6zVBbuXEiIiIiIttjx24ibBt6iIHlE/xAPcQiIiIi0sTSAbRpmjs648hkVnrHZCQ1lMnuESYnR6xxXuZYZqo/VSbV6xxhsuQ4q6q1GUayUkjSs0iVm5lMjxvJTMTMSLFpRERERESSdqwHem3mKHNdPdxjpVg4x5KpHdFogIG5o1m5y8vEDzyWGZdKAxlzZtXmZKzkOIAIk/1T2APWPOZHiXtHcuYxdfZgclxggOWpZ4gARJ5hyh6w5h2loFoRERER2fW2OYC2eoi7u+mfshOYHiKdohyZzOplztZFzz1bTGRee504AxxMBcBtQzw0sMzZc5l5jD5gjXQeZIA4r68BNx6ga86b1SMtIiIiIpJrmwPozE2E0egY6Q7dtRlGvBCIRolG5xnt2t5WVKxtiOlolMd4VCkcIiIiIlJUfd5EeO4sy10HuBFg7QecWK5x/W03YWeOk6kAeG2Go3NZPdLlJh+aZn60i/jr6okWERERkVzpF6kYhrHpSqqe1vkAo0f76e+egq4BBkr2QDs5OODF29/N1ECA6Fjl48bmRxnp76YbSPaET1M2fo5M0u1NJZQMEIg21jPxzp8/X+8mSAk7uW60HWyelp00Cm2LzU3rr3KtuqyM9fV1M5FIYJomZ86cKfo2wo3s27ePj3/849vUPEmJxWIMDw/XuxlSxPnz57nqqqtabl6tRstOGoW2xeam9Ve5Vl5WOT3QHR0d9WyLiIiIiEjDq08OtIiIiIhIk1IALSIiIiJSBQXQIiIiIiJVUAAtIiIiIlKFPQDt7e31boeUEYvF6t0EEREREQH2fPPvX+eD//RSvdshIiIiItIU9vzhv7mJyy67ud7tkDLm5ubKFxIRERGRbbcHYHV1td7tEBERERFpCnuyv5w/f57V1VXef//9iib+wAc+QHt7e8u+ZUZEREREJF9OAL26usrevXvp6OjgyiuvzCn47rvv8t5776WD5XfeeYdEIsHq6ip33XXXzrVYRERERKSOch5j9/7772Oz2QqCZ4CXXnqJlZUVLl68CMCVV16JzWaruLdaRERERKQVFDwHuljwDNDR0cFNN93Enj17ypZNi0zS3d1tfSaJbKWlazOMdI8ws7ZN5UVEREREKlDxi1R+4zd+g+uvv77ymtdmGPFCIBolGo0SnT/A6xGACJMVBbZ55dqGmI5OM9RWq/IiIiIiItXbU66AaZr85Cc/4Sc/+Qk33ngjH/3oRyur+dxZlrsOcGPqe9uQglkRERERaXob9kD/+te/5rXXXuOdd97BNE2uuOKKymt2HmRgeYpHc7qaI0x2e5ljman+bronk0kdkcnuTKrHZKREuewe5jVmRjLTTEbKlS82TalhIiIiIiKlbdgDffnll3PLLbfw3/7bf8MwjCofV+dkLDrPzEg/3VMwEIgy5nQyFg1A91EOzGfSK5xjUaJjkAx6jzLzwHSRclnRbeQZpuwBotPOzLCNyrPGzEg/J3rmiU63bVyPiIiIiMgGyqZwAHzwgx/kAx/4AJdffnmV1bcxNB1laG2Gkf5uJgNRxorFqpFJur2pN+11MVqu2hsP0DXnZeTAPNOV5IWs/YATywM8NJ1Xttp66uz8+fP1boKUsJPrRtvB5mnZSaPQttjctP4q16rLqmwA/atf/Yr33nuPa6+9dvNzaRvisdET9J+MFAbQWTcbOlljZuTRiuqbjg6xNjNCd/ey1bu9uXbVpJ4dohfWNKbz58/v2LrZyXm1Gi07aRTaFpub1l/lWnlZlX0Kxy9+8QtM0+TKK6/k5z//eeU1R2Zy8o9/cGKZrgM3FpbLvtlw7QecWK58Fm1D08yPdhF/vcwjPdruoadrjqMlHv1RcT0iIiIisusVBNDvvPNOzvdf/vKXGIZBPB4veO5zftkczps425+6Qa+f/7+9+wdp4//jOP5Kc6aUFkLXQvy5mMlstwUrhaaUQrE5pailiPDdBUeHDt8hY8C9oEuNQkmqpXYQSqWkS7OImdKl/Qrt1hKolgRrfoN6zenln9VcYp+PKX4+d5978/nc8PbD5/O5ZP/c4TKJqIasqs1+0ceaUVJx05T55JP6I3YDzuuqVZ0vHU/26x+3dh1CmpifU38y7tww6NoOAAAAUJtvYWGhMjAwIEn68OGDAoGA42uEpVJJu7u7un79uuPGo095l8tlPuXdBvl8XpOTk16HARcs4egO9B06Be9id2P8mneR+8qwLEuFQkGSFA6HVSgUtLm52dTNPT09CofD5xkfAAAA0FEcmwiDwSCzyQAAAEAdTX/KGwAAAAAJNAAAANASEmgAAACgBYYkNgJ2gXw+73UIAAAA0GECnU6nG10HAAAAQIcJtGVZXseBBvgnBwAAoDMYkuxzoAEAAADUxyZCAAAAoAUk0AAAAEALjEYXpFKpuvU+n0+jo6MyjIZNAQAAAF2vbtZbKpUUCAQ0MjJil6VSKY2Pj9t/r6ys1Eies0qY06re+haZyWh+ItRC/VP1ZeZlFwEAAAAeq7uE4/Lly47k2c3w8HCd2ohmMjnlcjnlcnPqT8ZlJrIt1AMAAACdpY3rLqKazczoY3xD2dmooi3Xo1gseh0Camjn2PAenB59h07Bu9jdGL/mXdS+ciTQ+/v7Wl5etpdoHF+u8cdCg4pFktrIzirqliE3qv/LBYNBr0OAi2Kx2LaxaeezLhr6Dp2Cd7G7MX7Nu8h9ZS/hOEqej2u0iRAAAAD4m9gJ9FHyPDo6alcezT4vLS2d4SMj6uv9k3oAAADAO3YC/fDhQ0nS8+fP7cqj2eexsbGzedr2O61v9et/tU7VaFQPAAAAeMxOoP1+v51EVzu7NdBZJeJJ9c/N1tgg2KgeAAAA8J5jE6Hf73ckzMeT56MZ6eY3F24pGTeVlHR0ZJ3zTOdW6o+fEw0AAAC0n29hYaEyMDDgdRxoIJ/Pa3Jy0usw4IJTOLoDfYdOwbvY3Ri/5l3kvrpkWZbXMQAAAABd41KhUPA6BgAAAKBr1P2UNwAAAAAnEmgAAACgBSTQAAAAQAsMSQqHw17HgQby+bzXIQAAAECHCXQ6nfY6DgAAAKArGJLEUXadj39yAAAAOoMhSY2Ostvb25Nh/P5oYaVS0eLioqSD5PvKlSvnGCIAAADQOepuItzf31e5XJZhGEqlUtrf35ckO3mWpFevXunnz5/nGyUAAADQIQy3wp2dHa2ursrn86lSqdjly8vLevDggePaUqnEDDQAAAD+Gq4J9OrqqiRpbGzMLkulUhoZGZHP5zuRWKM9isWi1yGghnaODe/B6dF36BS8i92N8WveRe0r1wTaMIwTM83j4+P274mJCS0uLqpSqejRo0euDWcTpp72ZTQ/EaoulLkxpNzjz5qKryuWmVd19dnJKmE+Vd+5te+NYDDodQhwUSwW2zY27XzWRUPfoVPwLnY3xq95F7mvXNdA3759W36/v+6No6OjGh4erlkfHbK09ek/R1l2Iy1rKCqFJjSfq5XcZpUwp7S43TB2AAAAoO1OJNDLy8taW1vTy5cvtbu7W/PGQCCga9eu1W65t0+R9IaydkFWG2lLQ9E/CxgAAADwkiOBfvHihfb29iRJP378UCaTOX3LoUHFImltHGXQ2Q2lrSEd5M/Vs8wHvxOJKZmmKdOcVlpbSsZNmYmsTs5IO//OJszD+46uBwAAAM6PI4H+9evXGTYd0mAsoo+fDzJde/mGqy197PtXuVxOudycLEU0k8kpN9t4ujo6m/t9X/opSz8AAABwrhwJ9MjIiP3b7/fr7t27f9R4aDAmrb/Ttrb1+WNEfb21rowoNnjK3X7ZRNXMNQAAAHC+TpzCUetUjVMJDSqmJ3qXldYV079nfSLG9qKmpqW5XE5RbWtx6skZPwAAAABwcj2FY2lpqe5N379/15s3b/T69esGzYc0GJOS00kpNqjT5c+96otsyT7QI7vxe6b5v0/aivSpV5K232l961QPAAAAAJp2KRwOnygMBAInylKplCSpUqno7du3+vr1q759+6Znz57VfUBoMKZIS0s0ohqyqjcRhjTxj6X09OFGwQ3Jsi99rBklFTdNmU8+qT/S5CMAAACAU/ItLCxUBgYGHIVfvnzR+/fv5fP5FAgEVC6XVS6XJUn379/XysqK4/ozXfYBV/l8XpOTk16HARd8SKU70HfoFLyL3Y3xa95F7ivDsiwVCgVH4Y0bNzQ8PKyenh67bG1tTffu3VOlUtHVq1e1s7MjSfL5fG0NGAAAAPCScTx5PlKdPBeLRd25c0fSQcJ869YtbW5uqlQqKRaLtSVQAAAAoBOcOIXDzfHp92AwqJs3b55LQAAAAEAncz2FAwAAAIA7EmgAAACgBYYkuR1lh86Sz+e9DgEAAAA6TKDTaT6CDQAAADTj/6PuiLfk0nWoAAAAAElFTkSuQmCC;" parent="1" vertex="1">
          <mxGeometry x="-1140" y="2480" width="2331.76" height="880.89" as="geometry" />
        </mxCell>
        <mxCell id="seATs-7x_3SzNpBKobR3-14" value="IL VALORE DI UN CAMPO DI UN ISTANZA-RECORD PUO&#39; AMMETTERE O MENO IL VALORE NULL.&#xa;&#xa;&#xa;E&#39; UN PARTICOLARE VALORE CHE INDICA CHE IL CAMPO HA UN VALORE NON DEFINITO (IL CAMPO NON HA VALORE DEFINITO).&#xa;&#xa;&#xa;I CAMPI DELLE TABELLE POSSONO ESSERE DEFINITI CON ACCETTAZIONE O MENO DI VALORI NULL.&#xa;&#xa;&#xa;I CAMPI POSSONO AMMETTERE VALORI NULL, MA NEL MOMENTO DELLA DEFINIZIONE DEL CAMPO OCCORRE CAPIRE SE QUANDO SI INSERISCE IL RECORD &#xa;COL COMANDO INSERT SQL E&#39; POSSIBILE NON INDICARE UN VALORE SPECIFICO PER IL CAMPO, OSSIA LASCIARLO IMPOSTARE DAL DBMS AL VALORE NON DEFINITO (NULL) OPPURE INDICARE IL VALORE NULL NELLA INSERT-SQL.&#xa;&#xa;&#xa;AVERE UN RECORD CON VALORE NULL PUO&#39; COMPROMETTERE LA CONSISTENZA DEI DATI.&#xa;&#xa;&#xa;AD ESEMPIO, SE QUANDO INSERIAMO UN LIBRO COL COMANDO SQL-INSERT NON INDICHIAMO IL VALORE DELL&#39;AUTORE POTREMMO INSERIRE UN LIBRO SENZA AUTORE. &#xa;&#xa;&#xa;D&#39;ALTRA PARTE POTREMMO AVERE ANCHE DEI CAMPI IL CUI VALORE NON E&#39;NOTO LA PRIMA VOLTA CHE IL RECORD VIENE SCRITTO NELLA TABELLA&#xa;OPPURE NON E&#39; OOBLIGATORIO IL SUO INSERIMENTO. E&#39; IL CASO DEL CAMPO &#39;NOTE&#39; NELLA TABELLA &#39;LIBRO&#39;." style="text;whiteSpace=wrap;fontSize=20;fillColor=#cdeb8b;strokeColor=#36393d;" parent="1" vertex="1">
          <mxGeometry x="1240" y="2530" width="620" height="890" as="geometry" />
        </mxCell>
        <mxCell id="seATs-7x_3SzNpBKobR3-15" value="&lt;h1 style=&quot;font-size: 40px;&quot;&gt;LA CHIAVE PRIMARIA (PRIMARY KEY)&lt;/h1&gt;" style="text;html=1;strokeColor=#d79b00;fillColor=#ffe6cc;spacing=5;spacingTop=-20;whiteSpace=wrap;overflow=hidden;rounded=0;align=center;labelBorderColor=none;" parent="1" vertex="1">
          <mxGeometry x="-1100" y="4070" width="2550" height="780" as="geometry" />
        </mxCell>
        <mxCell id="seATs-7x_3SzNpBKobR3-16" value="DA WIKIPEDIA: UNA CHIAVE PRIMARIA O PRIMARY KEY, NEL MODELLO RELAZIONALE DELLE BASI DI DATI, È UN INSIEME DI ATTRIBUTI CHE PERMETTE DI INDIVIDUARE UNIVOCAMENTE UN RECORD.&#xa;&#xa;ABBIAMO VISTO CHE VI E&#39; LA NECESSITA&#39; DI IDENTIFICARE OGNI RECORD IN MODO CHE POSSA ESSERE CONSIDERATO UNIVOCO&#xa;&#xa;NEL CASO DI UN LIBRO POSSO AVERE REPLICATI IN PIU&#39; RECORD I VALORI DEI CAMPI &#39;TITOLO&#39;, &#39;AUTORE&#39;, &#39;EDITORE&#39;&#xa;FIN ANCHE A DUPLICAZIONI DEGLI STESSI VALORI. &#xa;&#xa;VA PERTANTO INDIVIDUATO UNO O PIU&#39; CAMPI CHE IDENTIFICHINO UNIVOCAMENTE L&#39;ISTANZA-RECORD.&#xa;&#xa;NEL CASO DEL LIBRO, QUESTO E&#39; UNIVOCAMENTE IDENTIFICATO TRAMITE IL SUO CODICE ISBN (CODICE INTERNAZIONALE DI IDENTIFICAZIONE DEL LIBRO).&#xa;&#xa;IN FASE DI INSERIMENTO DEL RECORD IL MOTORE DEL DBMS VERIFICA CHE NELLA TABELLA LIBRO NON SIA GIA&#39; PRESENTE UN LIBRO CON LO STESSO CODICE ISBN.&#xa;QUALORA TALE CODICE ISBN SIA GIA&#39; PRESENTE VIENE IMPEDITO L&#39;INSERIMENTO DEL RECORD NELLA TABELLA." style="text;whiteSpace=wrap;fontSize=20;fillColor=#cdeb8b;strokeColor=#36393d;" parent="1" vertex="1">
          <mxGeometry x="750" y="4140" width="620" height="620" as="geometry" />
        </mxCell>
        <mxCell id="seATs-7x_3SzNpBKobR3-17" value="" style="shape=image;verticalLabelPosition=bottom;labelBackgroundColor=default;verticalAlign=top;aspect=fixed;imageAspect=0;image=data:image/png,iVBORw0KGgoAAAANSUhEUgAAAr4AAAEjCAYAAADUlwJ1AAAgAElEQVR4nO3df3Bb9Z3v/9dJTLohNMBys7RsHHLB8oKx+PaHMu1Yl83dCe7Uye5trIK3eIdxfCfXnoVd5PF84X7rBjoFV50LMx6Lpdyv881ck2FWlISR3e7G3sEwdzOsvMtEDW0tkl5L0CTWpkvZHUy2EELA5/uHfliWjmTJkSzJej5mPInP53M+5y1/jo7f+vjzOceYn583BQAAAKxx68odAAAAALAaSHwBAABQE0h8AQAAUBNIfAEAAFATSHwBAABQE0h8AQAAUBNIfAEAAFAT6sodAHJ78sknyx0CACBPjzzySLlDAJADiW8V+P73v1/uEAAAy/jOd75T7hAALIOpDgAAAKgJJL4AAACoCUx1AACgCkQikYL3aWhoKEEkQPUi8QUAoEp8+ctfzrvuT3/60xJGAlSnAqY6TKnvuut0Xd+UxfZWPft2UeMqopXEl7pPpb6+SfUaTnkjkiJeORP/T90OAEDSaR199FE9mvx6RsffvcIm3z2uZ7K1k6us6E7r6KodC9WswDm+O7TjzXuVkfuWRaUmpGXQ4FbADMjNX7QAADndqLsfekJPPPGEHrpbeuXF4yosV0xLMLfs1F888RfauWW5MqAyFLy4rf0Rj9588lmRbwIAUL227NylO9+Z0SlGSVFDCr+rw60P6JE7BtSbbaj17WfVet11ui7+tTg6HB+hnVos75uS3n62NVm3NbXNJe30aekg85T6rrtXz+mEBr60OP1iqm/xuBlTMt5abC//42SyPMZUn65rLeeHAYvpDWGvnIYhwzDkTBbE6vX2OmUYvZqU4tMkYvUMw1Dv5OpHDwAov9NHU6ZBHD2d2Kqjjz6jo0efiZf59Au9o1eeTtRJjPKe1tGsZfGm3j2uZ1KmWiQPkah3/Giy7JnUOQtL9juq0xbbnzn+m9L/gLAmrOh2Zq3DR3XHQK/FNIMp9X1pQHccndf8/LzmT3r05r2p0xFOaOBJaWR+XvNH9+m5e69Tr0ZidY/u04mBp+OJ55T6vjSm9pPxdo5KTy45WKuG549qn3bIc3Je88Ot8bji9eePat9zT1of96RHSsa+3HGsXnu2Y1SSafUNSodNU2Z4WOrrSkmKpxVqOizTHFGbJtVr61PzhCkzXje0m/nBAFAL3j3+qn5xo11N8akIt98bmwLxxBOduvMXr6bMl31H7/zeny6WJaZL3Ht7Smu3696sZZJ0WkeffkU3dsaP8dDdesf3zJJjvPKb5lhZ551655W/jye4p3X06RnZ49MznuiUXj3+bkZ7f6oZ/aJUPyisKSu8q0Orho8e03VPT+mB4ZTNb4f1pvbpkdb497c8oEf2DejYW5JukaQd8ow8EPtv6x7t05tq/Pot8Sb3aJ+eVPhtqVVhvakTeu5L12kg0fa+PYlGspvq03X3Phf/Zoc8yYKU46bGlPU4BR6jdVjzrdl3WX0tGj7sVoMkNbh1oKdP42EptqFFHXvik4EjswqpRwfa4rtl1AUArC2xEdlXJEl3qvOJnUpOwT19VI/6Eunjjbo7uc+Nsjdd4UTdd3+jd3SndiXy4S07tevOVxT6VykWwI26+z/HC29v1p16Vb95V7pdv9E7eke/SMYs6c7mWHs33q0/vT3R3C7d+cqrVxYjasLKb2fW+pA8T35JfVNHixhOqn06Oj+svPPJt59V673S0fl5teptPdvam62iwm9KSua3VsfJMuEh72NUkohmQ5L2ljsOAED53ai7H7JYcPbucT3jkzqfeEK3610df+bFskRn7U51PnGvlowhv8vUBqzMFTy57RY9MOLRm/feq+eSm2y6Q8/pWCJvfPtZPfncPu0pdDQ03s5y0w6WeGtWJ3Y06lZJevvvNHYitfCExv4u3tbbf6exE/GYCj1OtmOUfY5vumkdORafrxA5piPTPdrbZlGtoVHNOqjxxLzeiFeDB7PUBQCsXf/6G71z4+/pP0jSu6c0806R29/ye7pRv1AoMUH33eN69Rd3qjl9RkSW/V5Nv0/Zlt/Tje+8or8/nWjuVaY6IC9X9sjiWx7QiGdHyoZWDZ/06M1744u/vjSm9pMFjNqmtaOBL2VfrKZW7dmXsrit9SF5NKAvXXedruud1R2pYWmH7pjtjcc0oDuOJmLK5ziph8x1jErSouZTXbEFa7Y+NU+MyDqXbdNIeFih3fHFbbYj6ghnqwsAWLNu/8+6W6/o6Ucf1aMv/kY33pi1oprvTF3Aln/ZvQ/drXd88UVqT8/I/lDaKG6W49370N3SK0+nLby7Xfd23qlfxNt7UXbdWfirRg0y5ufnzXIHgeyefPJJff/73y93GACAZXznO9/RI488UrL2I5FIwU9u45HFwFI8shgAgCrBY4iBK0PiCwBAFWD0FrhyVzbHFwAAAKgSJL4AAACoCUx1qALf+c53yh0CAABA1eOuDgAAAKgJTHUAAABATSDxBQAAQE0g8QUAAEBNIPEFAABATeCuDhXu1VdfLXcIQNns2rWr3CEAANYQEt8q4HA4yh0CsOqCwWC5QwAArDFMdQAAAEBNMObn581rr7223HEAAAAAJcWILwAAAGpCnSS9//775Y4DAAAAWNaL/3BWf/qfbl7Rvoz4AgAAoCZwVwcAAACsab/6zW/15rn3Y4nvi/9wttzxAAAAAEWVSHh/97Mb9Luf/Uws8V3pPAkAAABgNeU7YPu/Z97Rb97/SIZh6IOPPpTEVAcAAACsQX9kvzFjG4vbAAAAUBOM+fl5s9xBAAAAAPla6fo0Et8qMz4+rq6urnKHAZTU+fPnddNNN5U7DMTRH5WF/qgs9Ef1OH/+PFMdAAAAUBtIfAEAAFATSHwBAABQE0h8AQAAUBNIfAEAAFATSHwBAABQE0h815RJ9RqGjN5Ji+1OeSNlCQookYi8TkOGEf9yerX8Kc57ofji153k1yr8fCNeOUt1nFK2vQome1P7YvHL2dtb1a+r+mW7XhXzmlTl17dVeu+R+K45LWoJ7VZG7gusJRGvnIZNpw6YMs3412HpGOd9mbRoOBzrh/Cw1NeVz4eQK9DgVsAMyN2Qq9IKk4C82q5cbSOJ98SEelL6JTAyUtWvq6pxvcrPKr33SHzXoI4DwwoNlvgXD1A2EXm7+tQ8YWqkLWVzg1vutqw7YZU0uA+oZ/qIjnEBAsT1qvLUSbGngWENsbl1oNlQl3ePAlYfnSJeOW19mo5/25N8Q06q1xhU00SHjuyOlfdMmHp41ilbX6x2y3B4sc0l7fRowhwR72OUXOSYjkz36ECuky3rOZ4qfr6HEyMMqd8X8l6I1x1uVl/fwbSyWhf72ahHOniwOXaNKOD6k/4zXmxnr8ZT+y7jWrRX48ZuHZQkm6G+ngmZI22a7DW0+2DywDJH2gpsO9u5VA1yn9/Zr+3V/JorQD7XK0kKL/7M8/s9G5HXaVP8cmTRR5PqNXbrYPI8T40pvc2HNeu06UhH/LiTvTIGmxQOuNVQ0Psy/f2diNcqVqttadfk5a4VK7zm1kmSy+XKqzLKz+/351WvbWRC40aXvHvS/2wwqV5b7NNnoE3xE8spb/KX/7T6BjsUNk01TPbK2G0oNByWacbfDLuf0qR7RG2aVK/tiDrCpgINkiZ75fRG1MYve6yGlibZshYud47nK9/3QrzuqQMyzRGLstoS8Q7qYEuHwsmf9bRCTfGfWyHXn4hXTlvqNWxpO4vDNVbXIpsC5oS05INNfBrASHwfY1Deh9vyaLsY51IlyvazXsuvuUxyXq+kzGvNcr9nJW88UTUDVp0Skde5W5owZVp94M9oUwoEJnTKeEqT7r0a3y1NmG4ttpz/+9Iy3san1Nc8ITOQEsykxbaMOJe5VqzwmlsnSbOzs3lURXVp08jEuIynJuUeSdkcmVVIKZ8+G9w60NOn8bAUO8tbNHw4fsK37VWPQmrak/itsVc9GtRsRGrTrEKa1kGbob5E2z17E40ApTV9SslTNt2y53i+8nwvJN43D7dlKasF0+pLXgt60n5ptqgj8XMr5PpjUZZsJ1Uk27XIwmSvjOSQb4uGrWLMaLsY51IlyvKz1lp+zWWS63olKfNas8zv2chsbBTZMumVjnTZpI6wLHPKrO+XeM5g7FbPhJmWQOb5vszW9p4mtRzcLWdTyqiszWJbRpzLXCtWeM21nOM7PT1t+YUq0/awhku60K1HE2bKZH3+FobV0LBHHS0HNc7CkAqyuIjKLNqUp4hmQ/nWzeNaFPEqNghmyjTDGm4pSpBrRCE/axTkiq9Xhf6enZbUoulT4SK2mWq5c8Wi7Qa3Aqapw+qSYRixnMRq2yopaHEbyW+1aZD78LBCu+Nz3SSpoVHNSnkTRrwaPNijvYX+poq3M1i1901B9WqQ+0CPDu5Ou1hGvPJOqoBz3Kamlmklfz9Mji++T1Aay/bNtI4kVsXF50Yue23K91oUPqXpxJ+cI8d0JJ9fZ8W6XlakLD/rNf2ay2GZ61XOXbOc2/Fk2vqcb1HH4YAmtFtOq/Ks75dJ9e6WJswJaXevloaW5/tymfdigzug8HCLQrORnNtS2yrFeVhX6A65kt+WFj5CV5wGtw4PH5Et+XeHNo2Eh+W0GTIkxUZqAisYoUm0Y5ORaNtqEj1QCm0jMsNNKeexpJZhhQNS/ud47BeSsduIJbw9PepZnehr2HJ906LmU10yjPjSmIw/ueZqM/NatLdnt3YnF7c9rOFBm2xGn9TSo568fl0V63pZibL9rNfyay6TnNernDtmPbfdgQmdMha3py9uaxsJa9Zpk3FkOL5ILVebwxoO9Sk0HNaIGmQbHpTN6U3ZL9/3ZZZ4946nTDHq0URynUTaNoUt2ir+eWjMz8+bkcjSTHt6elo7duzIqPzmm2/qww8/zNpY7sR3Tr7udg3NxL+192tstFP1OcMLyOM4pO1jo+rMXbFmhEIhdXV1lTsMoKTOnz+vm266qdxhIG51+iP9LhvI5sr7g591Ma3t69XaOlfOnz9f2IhvrqQ3pzmfutuHZPMGFXQubvMFpE5nzj0BAACAosia+J44caJIh5iT77FY0juQmuTWdzKKCwAAgFWTNfH9y7/8y4xtf/VXf1X4EeZe09SMS/tzjezGR4QTsyBc6UmypMxpD6nfx//vbdWUO9aOyxvU/We71R6fW2HvH9NoZ/3ifv02DQ3508qWTsewjgMAUHxtGsm86ShKgp818rX2zpXVeWSxfbu2ZS0MyJOYBhEMKjjWr7C7W765Qg8yo6FD0uPBoIJel/xuhx7T47E2vS7NDD2vQGrdMzszywLPa8jmjW0PkvQCAACsJVlHfFc0upvNzBmdk6wXss2dVVgpI8L1ndrvGtLxrDtkY1f/4/HFcs6dcims7XfFG3DulEuHdHZOctbH697vzCzbtl12v1vd2xMjwAAAAFgrSj/Vof4utdqHdDwwIGelj6DWd2o02Kk5X7ccjhmmOgAAAKwhqzDVoV6d+2NTDzyp96yL39VB9TfLJr+OBxa3H/K7tDMj4dym7fYZnTkX/zZwXP5SRdw5qrF+u8JnC55vAQAAgAq1OlMdnAMKjm1Xd7tDjsQ2e7/GRiXJqYGx/pQyu/rHRpU50BpLoB1uRyzhdbnkKl6EMQGPHO5EOu2SN8h0B6AcFhYWyh0CUtAflYX+qCz0R/VYWFiwfoAFKhcPsEAtiEaj2rp1a7nDQBz9UVnoj8pCf1SPaDRa+COLUTuM4Z9lbKtbZ+jyQ/9XGaIBAAC4MiS+yGn/Vxc/xR76p6g+WTBlDP9MZt8XyhgVAABA4VbnPr5YE1KT4Nwm1WsYMpJfTnkj2coM9U6mlvVqMrXeYuESEa8zrd14C71W+2Q/5mSvIWdmI1mPCyDVpHoT78OIV87kezJlO1bRWrz2pp9LEXmdiWNZt891HbmQ+KIg+Se/LRoOmzJNU+Fhqa/Lq4hFmTnRo4O7ExfczDZaQoMWvzwn9VTfdGb1iFeDoR71WO5jfcy2h4elvqdSjh+RdzCk4YfX1pNqgJJrcCtgBuRuKHcgtW5tX3sne2060hGWOZKol9K+aWqkjes6ciPxXWNM0yxoe862+r6g/++r/yHjq9BpDg3uA+qZPqJjVqM/bXvVo5Bms4wMNTdLR9J3nBzXwZ4e9aTVjRw7InU8rIc7LPbJdswGtw70HNRg4mo9+ZT6mg/wyxtA1Vtr196I16ndmlBguQs013XkUCdJjY2N5Y4DeQqFQlnLnnvuOf3yl7/U4OCg6uoWp29/8sknOnDggG6//fb87wjhMaSrDOkz10oyFrebpvTBvDRQeCJtaXJcB1s6FM5yQWp6+IBke0qT7hHFPqvHP7kfPqBTB1N/FhEdOyJ1HG5QgzqkrmOKuN2ybDbtmG0PD2uw65gi7j06NnhQPQdGivPagJoyqV5jUE3hlFHfsFdOW5+mJbUMh+MJS6yeeqSDB5s1YY6oLbJYT5J6JmIjdyiharv2HuuV7UiHwoH8Tgyu68imTpL8/lI9CgKr5dNPP9Uvf/lLvf766zpw4EAy+U0kva+//nqy3vr1660b8RhLElrz//7UopIp4wdZ9s8i4h1Mu8BOq89mqE+SeiZk5ryQtWlvz26NT46orU1S5JiOqEOHG6RTSw6yuF3aow516VjEnfIJP8cxG9w60GzoKa8U0rAO8wsXK/DAAw/kXffZZ58tYSSVYlp9gx0Km6YaIl45bV3y7kkkxdMKNYVlmvFE2Nan5glTgTbF5grbnPKGmTZxpdbOtXdafX3T6pkwLRLqlPbVE/sgVVDbqDV1kuRyFf1REFhl69ev1xNPPKFHH300mfx+97vf1fe+9z29/vrr+spXvqLBwUHrpPepq6VPL0uGkZH8rlz6xSh1BKBFw+GA3PLKaRvX5Eibcl5+Hx7WYJdXkTa3wk/1qfmAqYa0mWmxP7Udjh+jQXs6JNtTk3IvmQeW/Zhte3u0e3dflgsrsLzaSGYL0aLhw/H3fYNbB3r6NB6WYhta1LEn/k6LzCqkHh1IvCEz6qIwa/Ha26LhiQ4d2W31gSjevsXOXNdhhTm+a8hVV12lwcFBfeUrX9Hrr7+ujo6OJUlv6vSHJR7+UPp/LsemMeSb9P77Py9TIXXBwYj1xbXBrcPDocV5WNk07FGHjujYpFeDoWFlrk+ILbiY7rMlV/ba+qalg+OZCzeyHbNtr3rUoibbMi8LwApENJt9lhaKao1ee21uBSaa1WfLtiDPAtd1WCDxXWPq6uqSye9vf/vb5ZPeVI98sORb4wfrLL4Km+awnAb3ATX3dS1z26MGuQ80q293n9SxJ/OT++S4DrYMK2wuruw1zbCGWw5q3OIKmd8xAVyZ6cWFTpFjOjLdo71WWVhDo5qV8l6NeDV4MEtdFE1VXnvbRhQeDmm3M/VOFUBhMrOhTy5qk++rWvf+r5ZsXrjuVn3ompC56fOrFRtWKJH8+nw+3XffffklvZJUd/Xi/4u1eG1ZbXp4eFC2Lq/2BHIssmx7WMMtUqPF37Mmxw+qpSOcdlFu0J6OFvWNT1oskkk9ZpZFGACuUIuaT3XJMGJL1nomzCx/Vm/TSHhYTpsRX0Yb+9M1eW+pVee1t8Ed0MQpQzanFA40aunUjtRFlIA1Y35+3ly3bnHgd91vo9o02mRZeeG6W/XB/W+sVmzI4rOf/eyqHMcY/pkW3JmPJ17n/TlPbkNJRaNRbd2a7z2jUWr0R2WhPyoL/VE9otGo1VSH7CN96+bf0mf/anPWL+Pyb7Pu+9YPd2nz5s3Jr10/fKsYr6F4Xn6oMuMCAABAURR3ju+nlyw3v/zQZn3x2ye076ULunDhgi5ceEkluY9EPHl96OVSNF6G41SAdd6fZ3wx2gsAAKpR7smfqfM8PUb+Zane+qH+x3OS9r2kp7+W2Pg1PfhgAVHm6eW/fW7lO3/taV248HTpj1NFFtxf0ELaXwAMI0dfAwAAVLDMOb7/fk6bnmuOfTNg5k5q0+r89r/9Subv3LCk+K0f7kqO9i4mvilefkib73ku+e2OH7yhVx+8dXH7jh3aceKETsQK9carD+pWvayHNt+j5F77XtJLukcpzUj7XtIFd1i7vvjt2L6xjXrpjT/Q/0jdlmgzfrwdP3hDr9q8WY/91kObM4/ztDLiuWD5Yovj/fffL1nbAAAAa1Wey/1X7q3/c0LSDv3BrRaFieQ2nijGkuQv6iHbBS2Ovbp08MKr0g936Yvf/ra8Lz+oP/7be/ScdugHb7yqB5PtXtBLiiWlyST7rXC8bGndr114MOX431bPD7+uVy3v85d57KefzjzOyw9ttoindJhEj7WOxSKVhf6oLPRHZaE/qkeWxW2lcEL/x2LNWGLKwL4/jo2O3vp1l3ZIeu5vUybP3mFTai75Zvgt3foHOySd0Le/mOditB0ufT21kbd+qF2bNy8ZabZkcWwrBccDAACAVbd84juQ5Wle2ban+dof75OUPWlciVsffFUXXoq1e+LbX9TmXT9Uvq2//NBmbf7it6UfvJFso5zxAAAAYHXkTnw9xuJXIWWpvubWD3bEEsLFuyC8rB/+8K2MpPitv/PrhBZHgHO3+7QuXHhJ+1I2xUZec3lL4TclaYdcX79Vb8W+KZjlcSziAbCWvKfe3lPy/oukf/m1nIn/F8Oy7aUcGwCwYpmJr3EFsx8s971VD776hn6wQ3runsR9fO+RX4oliy/ti42Sbo7d8mzHD96wXgSX4uWHFtt5Tjv0g4MP6lZJtz7437VP8eNY3mvsVj343/cpMS2hx7+yl5l+nGzxoJwm1Ws4Y4/GjHjlTPy/GJZtL+XYWJs+93kFRprk/lyFtgcAsJRxVwctfCyt27Cy1syFK0uckZfVenJbvq5+5he6+MmCbthYp3/tjd0RxBj+Wexfw1jy9Lff/X9Deu+jT7Sxbp0+/Is7SxjVpHqNQTWFA1r9p1eW89hrQ/pikco4x95Tb++v1fS9ciSo5Tw2i3cqDf1RWeiP6mG9uG2lSa9E0luDEgmJJP3bxU+SyUiCaZqLCcrwz/TeR59Iki5+spBRF7BSvHPsI3kf/6mM3thXb6LoX34tZ6/F9rQy5+RHKQXpUw/yafttTWZ9lantZWkrazzxfSffTu6zNFYAQAKZKq5IIiGxepqb2feFnNtzPwEuIq/TkGHEvnoTGUPEK6dhsT2tzOmdTSlIn3qQT9u9OZKU1PaytCVJ4dR4Ikv39fYm93EyJyKn4pxjH8n7+Js6suMOmSNfljnyZY18QZLeU+93z6v5z2PbzO/dpND/TCSgS8sO6z0dtIwwV9vvqeN78bb/XBrMJyH92Xn1bb0lrS1Juqi+n0iH43Fq/O2UxPui+n59ffw412t6/HyO8xcAalfJ7+OLtS+RXJh9X1gywvYfR0+vsMWIvE6bjnSEZQZS5wpMqtfWp+YJU4E2xRJVm1PecEDuhqVlEa9TNknDBbV9RB1hU4EGSZO9cnojaltursLkU+prnpAZaEsrmFbfYIfCpqmGiFdOW5e8exJTH6bVd+qATHNEmuyVsfspTbpHlN4CFl3xOfYv7+nIP1+vA4/9Ttr2jxTS9TqQSC4/93kd+Mp5jcdHXkO/f5MOx8sa2j6vnvFfF9j2RR387k/Vl9j2leslpdVL97mNann9bTk/f4cCbal1N2q45/NqSI/zc/Gy3dfHqn3hevXo15r9F6mthucMP/DAA3nXffbZZ0sYCST6o9LVUv+Q+OKKZZuy8Kvu2/Uf/9epjDqJ/9+06Sr983+7I3PHyDEdme7RgUBa0hmZVUg9OpDIEBvcOtDTp/GwJM0q1DKsw22JogPq6RsssO1pHbQZi0lKz15JyyS+tia1HNwtZ1NYgSVJcouGD7tje6fG2RAvezgeaNte9WhQsxGpjfnAWRX9HFs112ti5JbCPtR87vMKjHxekclTMnovqufPU0d9Ez7SbFTSl4oW6JpT7b+c1xr6o7LVUv8w1QFFYfXnZmP4Zzpz4eMldVLrnf/g8qrElr8eTZimzMTXSB7pSoNbAdPUYXVlTnVIimg2VOxYa88VnWOfu14dv/9e5lSDz/2OmvWexlPm5A6+fr32fiFe9s/n9VS8LDL5a+upDsu0ndf0BgsNbU0K792o0K8T+1/UkTfi/4+PMu/NNVsIAJCBxBdXLJFo/Pi/3JKzjjH8MxnDP1tmbq+khj3qaDmowfS5rw2NatZBjafMyR082KO9bfGy6T49NZkoGrROUpZpO2N7nhrcAYWHWxSaTew/rSPH4v+PjzLvZS7Dil35OfY7cj92i5rH30xbNHa9Rr53k0L/M76Y7LvvqeN7iRHa6zXy59frYLysS9erx/LIudtWynbjf723/Iv92eIiNdv47+hAcrrDRjX/Ol723fNq/vMCR5IBALGpDn7/Cm9oi7Lo6uoqdwhJqQnGf7ll85K5mFL2P1Hn1iB3YEKnDJuM+LyDnglTI21tGgkPy2kzFHtsSouGw4H4L/82jUz0yNht6KCkluFh9ejICtpe3K6eieVHfSd7ZexOpNg9mjAbJIUltaj5VJcMYzp5DJKUlSneOXa9Rka+rJH0zfGpBZa+cIvM1B3aEvWu18jI9VfWdkZs8fY+l3bMtPKR/5pjX8vvAQAJmffxRUXz+/0VlfguJzUpsUpUlh39RU0q5L6Y+ZxjRu9PixtglTBHvlyUdrhPaWWhPyoL/VE9otFobMR3dnZ2ubrAFctrmkNFmVSvsTttykSPJkzuwFCpsp1jxUoAAQDVjbs6YNVUV9IrSW0aMc3MP1+jYlXfOQYAWE0Zie/CwoJOnjypjz5auhJ548aNstvt2rDhCp7shpqzffOG5Kr79LmY2zdzLuHKcY4BAPJlzM/Pm5HI4kr2S5cu6cSJE5aVN27cqC1btliWbdq0STfccENJgsSiUCikXbt2lTsMAACAqlPQVIeLFy/q3LlzWctbWlqUuVAuII/DrdT7Rtj7xzTaWV/Ioa3N+dTdPqXWsSyIp6IAABrVSURBVFEVo7lYrIe0PdnenHzd7RqyeRUccBbjAEXBJHqsdSwWqSz0R2WhPyoL/VE9kovbimVhYcEi8ZUku/qLlpymqO/UaLCzyI0uCnjaNdU6pmDRAwcAAMBqY3FbFnO+brnlJekFAABYIzKGZ03TXL2jz/nU7XDIEf/yBBIFAXkc3fJ4uuVweBTIqBvfFq/nm8tsr9vnSymL1/N5ksfqTu5k4TWP2qdaNZY+vSEjhjn5ulPjlhTwyNHt01y8LPO1AQAAoBxW6ckVMxpqT08CA/K0D8nmDSoYDCo41q+wOyWJ1YzC2x9XMDggpwLytE+pdSxe1ysdykhcl7b3uKbkT4/hzM74/i7NDD0v61x0RkNDfrn2d2rpWK9VDFLnfpf8xxdbChyP7xt4PjY3OBirX0FThAEAAGrSKiW+dvUnEsZEEjh3VmG5tDORENZ3ar9rRmfOLe7Telc89Zw7q3Bq8uz2a+ZM2iK7ubMK2/t1vzPR3H650mNIFDp3yqWwzloO+trV701PwnPE4Nwpl/94cgT6eDgew7btsvvduUeWAQAAsGqqaI6vS97ggJYOnJZo/sC2To16z8jR7tHNS45pFYN0f/8hPeab0zYdUrj18dhIcXzh3ZyvWw7HjFxeRn0BAADKaZVGfC3U3yyb/ErOEpjz6ZA/ZQTYom7m9Ia0OjNDej6QaO5Q2lSHAjkHNNYflrvbp7llYqi/q1Wael7PT2lxlDpR1jmqsX67wtbDywAAAFglGSO+hmGsuLHC9nVqYKxf3e0OOSQlbnlmPSiaqNsux1B8k8ur4EBaHa9LDrdDfkn2/n65NLWCV7GovnNU3jMOtXdLY6OdWWJwxqZp2Byxu0Ak8t6ARw53IvV2yRvk7hAAAADllPHkNtM0dfr06YxHFi/n6quv1m233Vbs+FZuzqfu9jPabzE1oRQCHoeO7yz9dIZQKKSurq7SHgQoM24IX1noj8pCf1QW+qN6WD7AwjAMNTU1lSOeogo8P6QZe7+2rcbB5nw6FO7X4wPLVwUAAEB5VNHituXEHy88k/jeJW8w/ZZkpTpmbJoGkxkAAAAq1xpKfOvVORpU6R5gXCnHBAAAwEqU764OAAAAwCoi8QUAAEBNqJOkxsbGcseBPIVCoXKHAAAAUJXqJMnvv6JHPQAAAAAVz5ifnzfXrWPGQ7Xw+/3atWtXucMAAACoOnWSNDs7W+44UABulI21jhvCVxb6o7LQH5WF/qge0WiUxW0AAACoDRn38V1YWNDJkyczHlm8ceNG2e12bdiwYdWCAwAAAIolI/G9fPlyRtIrSRcvXtTMzIy2bNli2dCmTZt0ww03FD9CAAAAoAgKenLbxYsXde7cuazlLS0tylwoF5DH4VbqfSNc3qAGnMscLOCRw+2X7P0aGy31o4cBAACw1hV1ju/CwkKWErv6x4IKBoMKel3yuz0K5GwpII/bL5c3qCBJLwAAAIpg9Re3OXfKpbDOzi1X0a7t21YjIAAAANSCjMTXNM3SHjFwXH57q+5KDOPO+dTtcMjhcMjh8CiQnBoxo6F2h7p9c1nqSbFpFN3yeLoXt+Wo5/N54ttT2o01Ll+3I1nmCWSLLUddAAAAVLSC5viuXCyJHZIkl1fB0cQE34A87VNqHQtqtF5SwKNu3zaNBr2S45C2j42qsz5bvTk5O2Nth7ePKRisX7be0Jn9CgYH4vOHn1egc0BOzcnX3a6p1jEFR1MnVWRp6+bnNWRLfQ0AAACoBquU+NrVPzaqTvnU3X5cgQGnnJI0d1ZhzcifSIolybUzc/ec9exqTQwfL1Ov//54surcKZcO6eyc5NRrmppxaf9o2kzibG3dtV12v1vd28c02snsYwAAgGqxSolvXH2nHu/v1mO+OTmTSaNL3uCAlo6fWs0fKHa9fFi15dRosFNzvm45HDP53aECAAAAZbfqi9vqO/fLNvSYfHOS6m+WTX4d8i2z0q3Y9Zbsc5da7Rb7LNNWfeeoxvrtCi+/Sg8AAAAVICPxNQxjxY3lt69T9/dLQ4/5NCenBsb6paH25GIxh+VqsWLXS1WvzlGvbCn7xHbJ0lZgcYFc+5BN+5nuAAAAUBWM+fl5MxKJJDeYpqnTp09bPr0tl6uvvlq33XZbseNDmlAopK6urnKHAZRUNBrV1q1byx0G4uiPykJ/VBb6o3pEo9HMOb6GYaipqakc8QAAAAAls/oPsAAAAADKgMQXAAAANWF1b2eGoohGo+UOASg5zvPKQn9UFvqjstAf1YPEtwoxiR5rHYtFKgv9UVnoj8pCf1SP5OK2xsbGcseCPIVCoXKHAAAAUJXqJMnv95c7DgAAAKCk6iTJ5XKVOw7kiQ8pAAAAK1MnSbOzs+WOAwAAACgpbmcGAACAmpBxV4eFhQWdPHky45HFGzdulN1u14YNG1YtOAAAAKBYMhLfy5cvZyS9knTx4kXNzMxoy5Ytlg1t2rRJN9xwQ/EjBAAAAIqgoPv4Xrx4UefOncta3tLSonXrls6eCHgcclusx7L3j2m0sz72zZxP3e1Tah0bVWITAAAAUExFfYDFwsJCRuLrHAgqOCBJAXkch7TdKrmt79RosLOYoQAAAABLsLgNAAAANSEj8TVNcxUOG5DH0S2Pp1sOh0eB+Pe+uXjxnE/dDoccDoe6fb4VlcXatTrWnHzdiToOeQKr8HIBAABQdkWd6lCYGYW3jykYrJcU0PHk9oA87UOyeYMadUpzvm61S+rPq2xKrWNBjdZLCnjU7ZuTszPtWAGP3DavgqPOVX69AAAAKKcyTnWwq/Uui5Vsc2cVtvfr/nheWt+5X658yzSjofb4aK7br5kziYV4Kcfatl12v1vdyWFiAAAA1IIyjviWgkve4ICWjuWmzWWIL6Sb83XL4ZiRyxvUAIO/AAAAa17lLW6rv1m2mSE9H89X53yH5M+3TH4dynMkt75zVGP9doXPMvILAABQCzJGfA3DWHFjV7LvIqcGvC453A75Jdn7++XSVH5lY/3qbm+XYyi+yeWN30otRcAjR/LGwi55g9w4GAAAoBYY8/PzZiQSSW4wTVOnT5+2fHpbLldffbVuu+22YscXf7jFGe3PmMKwTNkaFQqFtGvXrnKHAQAAUHUsR3ybmprKEYulwPNDmrH3a1uBZWvZ1q1byx0CUFLRaJTzvILQH5WF/qgs9Ef1iEajlbi4bU6+7nYNzSS+d8kb7FT9smUAAABAdhWY+NarczQo6wcY5yoDAAAAsqu8uzoAAAAAJUDiCwAAgJpQJ0mNjY3ljgN5CoVC5Q4BAACgKtVJkt/vX64eAAAAUNXqJMnlcpU7DuSJDykAAAArUydJs7Oz5Y4DAAAAKCkWtwEAAKAmZNzHd2FhQSdPnsx4ZPHGjRtlt9u1YcOGVQsOAAAAKJaMxPfy5csZSa8kXbx4UTMzM9qyZYtlQ5s2bdINN9xQ/AgBAACAIijoyW0XL17UuXPnspa3tLRo3br02RMBeRzHtTM4IGdBoQXkcRzS9rFRdfJMYgAAAFyhos7xXVhYKGZzAAAAQNGwuA0AAAA1ISPxNU2zhIcLyOPols/nkcPhkMPhULdvbrF4zqfu5PazS3dNKXM4PApoTr7ulP0DHjm6fZrLWl9SfJ/EsT2BEr5UAAAAVJQyjPjOaOjMTgWDQQW9Ls0MPR9PSgPytA/J5g0qGAzqcU1p8VENAXnap9Q6FozvJx3ySZ2jXtmGnldAAXnckne0U/VZ689Jgec1ZPPGtgWDGihs0jEAAACqWEGL24rDrv774xmnc6dcOqSzc5JTZxW29+vxeFF95365hg7Fvpk7q7Bm5G93aCjRjGunJKcGvMflcLjl8gYXF89lq3/Xdtn9bnVvH9NoFa+Yi0aj5Q4BKDnO88pCf1QW+qOy0B/VowyJ70q55C3ozhBW9Z0aDXZqztcth2NGLm91jvpu3bq13CEAJRWNRjnPKwj9UVnoj8pCf1SPaDRaQYvb6m+WbWZIz8fn3c75Di1Odai/WTb5Y9MVlohPcQh6JXdiHm+u+vHizlGN9dsVPmtdDgAAgLUnY8TXMIwVN3Yl+8amLbjkcDvkl2Tv75dLU4tlY/3qbm+XIzF3wdWv/vCQwv1jGlC9tvUfUnu3T2Ojnaq3rO9VcOdxOdyJdNolb7B6pzsAAACgMMb8/LwZiUSSG0zT1OnTpy2f3pbL1Vdfrdtuu63Y8SFNKBRSV1dXucMASoo/HVYW+qOy0B+Vhf6oHtFo1HrEt6mpqRzxAAAAACVTOXN8AQAAgBIi8QUAAEBNIPEFAABATSDxBQAAQE2ok6TGxsZyx4E8hUKhcocAAABQleokye/3L1cPAAAAqGp1kuRyucodB/LEhxQAAICVqZOk2dnZcscBAAAAlBSL2wAAAFATMp7ctrCwoJMnT2Y8snjjxo2y2+3asGHDqgUHAAAAFEtG4nv58uWMpFeSLl68qJmZGW3ZssWyoU2bNumGG24ofoQAAABAERQ01eHixYs6d+6c5dfp06e1sLBgsVdAHodDjuRXt3xzVxj1nE/d2drJVQYAAICaZczPz5uRSCS54dKlSzpx4sSKGvvqV7+qurr0QeSAPI5D2j42qs56ac7XrfapVo2Ndqo+75aXtpF/2doTCoW0a9eucocBAABQdTKmOpRafed+uYYO6bW5zppIVEth69at5Q4BKKloNMp5XkHoj8pCf1QW+qN6RKPRzKkOpmmuahABT8o0CE8gsVUeR7c8nu54mVt+zWioPVEnVu6bC8iTtSze1JxP3SlTLZKHSNTzeZJl3Ys7yddttQ8AAACq1arfzmzOd0h+e6vuio/2OgeCCgaDCga9cvkPpczNnVF4++OLZbKrfyyo4IAzpTWnBrKWSVJAnvYh2bzxY4z1K+zuXnKMoTM7Y2Vel2aGnldAkgLPa8jmjR87qIxmAQAAUHVWKfGNj8g6HGofssmbOr834EkZ1U1lV+tdVzgXYu6swnJpZyJxre/UfteMzpxbPEb//fFC5065FNbZOUnbtsvud6eMAAMAAKDarVLiGx+RDQYVDA4oOYA651O3W/IGgwoGx9RvX51ollXfqdFgUI/rMaY6AAAArBHlfXLbuTOasW/XNkmae01TM0Vuv/5m2eTX8UTiOufTIX/KCPByu3eOaqzfrvBZRn4BAACqXUbiaxjGihsreF/n/erXkNodDjkeOyNb1hFfp3a6Uhew5V82MNavsDu+UK19Sq1jKSPO2QQWF7y1D9m0n9tPAAAAVL2M+/iapqnTp09bPr0tl6uvvlq33XZbseNDmlAopK6urnKHAZQUtweqLPRHZaE/Kgv9UT2i0WjmfXwNw1BTU1M54gEAAABKZt2L/3C23DEAAAAAJbfuT//TzeWOAQAAACi58t7VAQAAAFglJL4AAACoCXWS1NjYWO44kKdQKFTuEAAAAKpSnST5/f7l6gEAAABVrU6SXC5XueNAnviQAgAAsDJ1kjQ7O1vuOAAAAICSyniAhSS9//77mp2d1eXLl/Nq5KqrrlJjY6OuvfbaogYHa9FotNwhACXHeV5Z6I/KQn9UFvqjelgmvrOzs9qwYYOampq0adOmJWUfffSRLl26lExyP/jgA0UiEc3OzmrHjh2ljxg8GhFrHo8ArSz0R2WhPyoL/VE9otGo9e3MLl++rIaGhoykV5LeeOMNnTp1Sp988okkadOmTWpoaMh7dBgAAAAoh6z38bVKeiWpqalJN998s+rq6patmxTwyOFwxL88Cqws1pg5n7od3fLNlag+AAAA1qSCH2BxzTXX6MYbb8x/hzmfut2SNxhUMBhUcGy7zgYkKSBPXglpWr36To0GR9VZX6z6AAAAqAWWc3ytmKapaDSqaDSqbdu26fd///fz2/HcGc3Yt2tb4vv6TpJQAAAArLq8Rnw//fRT/epXv9IHH3wg0zS1cePG/I/g3CnXzJAeWzK0G5DH4ZZfMxpqd8jhiU1+CHgci1MiPIEs9VJHdOfk617cxxNYrr7VPtm2AQAAYC2pGx8fV3Nzc85K69ev1y233KJ//Md/lGEYBd62zKmB4Jh83e1yDEkub1ADTqcGgl7JcUjbxxanITgHggoOSLFk9ZB8949a1EvJSgPPa8jmVXDUubgtV33NydfdrqnWMQVH63O3AwAAgDVlXSFPbfvMZz6ja665RuvXry/wMPXqHA0qONavsDvHiGpyEZxbeT2fbNt22f1udee7cm3uNU3NuLQ/fa5Foe0AAACg6qzL96ltH3/8sS5duqTNmzev/Gj1nXq83y7/cYvMd8kiuDH12/NrbzQY1ON67MqmKBSrHQAAAFSsvO/q8O///u8yTVObNm3Sv/3bv+V/hIBvyfza16ZmZN++LbNe6iK4udc0NZP/Ieo7RzXWb1f47DIjtvV3qdXu16EsI7t5twMAAICqkzXx/eCDD5Z8/+GHH8owDIXD4Yz79qbXXcJ5s860JxaOtWvI5tVoZ70kp3a6UhahOe9Xv4bU7nDI8dgZ2ZIjvmn1UqXcH7h9yBafwpCjvurVOeqVbah96UI2y3YAAACwlhjBYNBM33jixAlt2LBhydPbLl26pA8//FDXX3/9krqJRxZ//PHHPLJ4FYRCIXV1dZU7DKCkeARoZaE/Kgv9UVnoj+oRjUat7+Pb2Nio2dlZ/fznP8+roauuukqNjY1FDQ4AAAAoJsvE99prr2X0FgAAAGtKwY8sBgAAAKoRiS8AAABqAokvAAAAakKdJBamVZFQKKRoNFruMICS4zyvLPRHZaE/Kgv9UT3qJMnvz+sBwagQ3DYFax23B6os9EdloT8qC/1RPZK3M3O5XOWOBXniQwoAAMDK1EnS7OxsueMAAAAASorFbQAAAKgJJL4AAACoCZZPbrPywgsv5Cw3DEP33HOP6urybhIAAABYNXllqZcuXdKGDRv0zW9+M7nthRde0H333Zf8/sc//nGWpDcgj8Ot1CVZ9v4xjXbWF1B+SNvHRpXcBAAAABQor6kOn/nMZ5YkvVa+8Y1v5Ci1q38sqGAwqGDQK9tQuxyeQAHlAAAAwJUpwxxfpwbG+mX3H5d1artcOQAAAFC4dVZPbVtYWFgyp3e5+b0Fq79LrXa/jmfLbJcrBwAAAAq0Lv2BCAsLC3rxxRczKhY9+QUAAABW0br0p7Ylkt577rknuS2xiO1HP/pREQ9t1/ZtV1IOAAAA5C9jjm9HR4ck6aWXXkpuS4z2futb3yrOUede09SMTTdnu0vDcuUAAABAgTIS3/Xr1yeT31Spty67MgF52odk8w7IuaJyAAAAoHCW9/Fdv379kkQ3PelNjACn38s3uxkNtTs0JClx67Kl9+QtpDz9Pr8AAADA8owLFy6Ys7Oz5Y4DeQqFQurq6ip3GEBJRaNRbd26tdxhII7+qCz0R2WhP6pHNBotx318AQAAgNWX1yOLUVmi0Wi5QwBKjvO8stAflYX+qCz0R/Ug8a1C/EkFax1/Oqws9EdloT8qC/1RPZjqAAAAgJpB4gsAAICaUCdJjY2N5Y4DeQqFQuUOAQAAoCrVSZLf7y93HAAAAEBJ1UmSy+UqdxzIEx9SAAAAVqZOkvJ9gMUnn3yiurrFG0GYpimfzycpljxv3LixBCECAAAAVy6vxW0LCwv6+OOPVVdXpxdeeEELCwuSlEx6JenYsWO6ePFiaaIEAAAArlDO+/h+8MEH+slPfiLDMGSaZnL7iy++qL179y6pe+nSJUZ8AQAAULFyJr4/+clPJEnf+ta3ktteeOEFffOb35RhGBkJMQAAAFCpck51qKur0z333LNk23333acNGzboqquuUmdnpwzDkCT92Z/9mWUbAY9D3b659I1yeALSnE/djm6lFxdPQJ6Stg8AAIBqkTPxvfvuu7V+/fqcDdxzzz36xje+kbXcudOlmTPnlmwLHPfLtdMp1XdqNDiqznqrPUlaAQAAUDxZE98XX3xRExMT+pu/+Rt9+OGHWRvYsGGDrrnmmuxH2LZddv9xBZIbAjrud2mnc2UBAwAAACthmfiOj4/rk08+kST99re/1djY2MqPUH+XWu1+HU9kvoHj8rt2Kpb3po7qxv7v8XTL4XDI4XDLrxkNtTti0yIyRoCXfh/wOOL7JeoDAAAAi9ZZPRDh008/LeIh6nVXq13hs7EMNTnNwdKMwtsfVzAYVDDolUt29Y8FFRxYfnjYORBc3M9/iCkSAAAAWGKd1VPbvvnNbyb/v379en3961+/ooPU39UqTb2mOc3pbNiu7duy1bSr9S7LCb/LC3hSRooBAACApeqyPbUt210aVqT+LrXqMb0WkKbUqsdXmNtmNedTt1vyBoNyak6+7seKfAAAAABUu5z38f3Rj3605B6+6d577z298cYbunTpktra2nK0VK+7WqV295Ds/WNaWd67TdvtMzpzTlK9YnOFJfVL0rkzmrFv1zZJmntNUzNS64qOUR2i0Wi5QwBKjvO8stAflYX+qCz0R/XImfhu2LAhY9sLL7yg++67T6Zp6u///u+Td3z467/+65yjxPV3tco+pAKmMji10+WWu92hIZdXwQGnOve75HA7YlMZXC4lJ2k471f/oXa1O4Yku0sue56HqFJbt24tdwhASUWjUc7zCkJ/VBb6o7LQH9UjGo3KCAaDWR+9dv78eU1PT8swDG3YsEEff/yxPv74Y0nSn/zJn+jHP/7xkvpFnR4BS6FQSF1dXeUOAygpfpFUFvqjstAflYX+qB7RaDT3iO9NN92kb3zjG7rqqquS2yYmJrR7926ZpqlNmzbpgw8+kKTkE9wAAACASpQz8ZW0JOl9//339bWvfU1SLNH9oz/6I/385z/XpUuX1Nq6lmfVAgAAoNotm/imuvbaazO+/8M//MOiBgQAAACUQtZHFgMAAABrCYkvAAAAakKdJDU2NpY7DuQpFAqVOwQAAICqVCdJfj8P+QUAAMDaVidJX/3qV8sdB/L0T//0T+UOAQAAoCrVSdI111xT7jgAAACAkiLxBQAAQE3grg4AAACoCSS+AAAAqAkkvgAAAKgJJL4AAACoCSS+AAAAqAnGhQsXzIWFhXLHgTyNj49r165d5Q4DAACg6tT5/X7t3bu33HGgAFu3bi13CEBJRaNRzvMKQn9UFvqjstAf1SMajWqdy+UqdxwAAABAya2bnZ0tdwwAAABAybG4DQAAADXh/wfnCtEEPJvSQAAAAABJRU5ErkJggg==;" parent="1" vertex="1">
          <mxGeometry x="-1020" y="4160" width="1519.79" height="630" as="geometry" />
        </mxCell>
        <mxCell id="gOkVbMLSEhI8VF7hDGrI-1" value="CREATE DATABASE `biblioteca` /*!40100 DEFAULT CHARACTER SET utf8mb4 */;&#xa;&#xa;&#xa;CREATE TABLE `libro` (&#xa;  `titolo` varchar(50) NOT NULL,&#xa;  `autore` varchar(30) NOT NULL,&#xa;  `editore` varchar(40) NOT NULL,&#xa;  `anno_edizione` int(11) NOT NULL,&#xa;  `note` varchar(100) DEFAULT NULL,&#xa;  `codice_isbn` char(18) NOT NULL,&#xa;  PRIMARY KEY (`codice_isbn`)&#xa;) ENGINE=InnoDB DEFAULT CHARSET=utf8mb4;&#xa;&#xa;&#xa;&#xa;&#xa;-- LA QUERY DI SEGUITO INSERISCE PIU&#39; LIBRI CON UN SOLO COMANO DI SQL-INSERT (INSERT MULTIPLO) &#xa;&#xa;INSERT INTO biblioteca_generation.libro (titolo,autore,editore,anno_edizione,note,codice_isbn) VALUES&#xa;     (&#39;American Psycho&#39;,&#39;Brett Eastonallice&#39;,&#39;Mondadori&#39;,1988,NULL,&#39;978-88-222-0003-7&#39;),&#xa;     (&#39;Padre ricco, padre povero&#39;,&#39;Robert&#39;,&#39;Kiyosaki&#39;,2005,NULL,&#39;978-88-222-0003-8&#39;),&#xa;     (&#39;Il nome della rosa&#39;,&#39;Umberto Eco&#39;,&#39;Sperling&#39;,2022,NULL,&#39;978-88-222-0003-9&#39;);" style="text;whiteSpace=wrap;fillColor=#d5e8d4;strokeColor=#82b366;fontSize=20;" vertex="1" parent="1">
          <mxGeometry x="-550" y="5680" width="1430" height="550" as="geometry" />
        </mxCell>
        <mxCell id="gOkVbMLSEhI8VF7hDGrI-3" value="" style="shape=flexArrow;endArrow=classic;html=1;rounded=0;labelBackgroundColor=none;fillColor=#0050ef;strokeColor=#001DBC;fontStyle=1" edge="1" parent="1">
          <mxGeometry width="50" height="50" relative="1" as="geometry">
            <mxPoint x="120" y="1860" as="sourcePoint" />
            <mxPoint x="120" y="2270" as="targetPoint" />
          </mxGeometry>
        </mxCell>
        <mxCell id="gOkVbMLSEhI8VF7hDGrI-4" value="" style="shape=flexArrow;endArrow=classic;html=1;rounded=0;labelBackgroundColor=none;fillColor=#0050ef;strokeColor=#001DBC;fontStyle=1" edge="1" parent="1">
          <mxGeometry width="50" height="50" relative="1" as="geometry">
            <mxPoint x="140" y="3567" as="sourcePoint" />
            <mxPoint x="140" y="3977" as="targetPoint" />
          </mxGeometry>
        </mxCell>
        <mxCell id="gOkVbMLSEhI8VF7hDGrI-5" value="" style="shape=flexArrow;endArrow=classic;html=1;rounded=0;labelBackgroundColor=none;fillColor=#0050ef;strokeColor=#001DBC;fontStyle=1" edge="1" parent="1">
          <mxGeometry width="50" height="50" relative="1" as="geometry">
            <mxPoint x="140" y="4990" as="sourcePoint" />
            <mxPoint x="140" y="5400" as="targetPoint" />
          </mxGeometry>
        </mxCell>
      </root>
    </mxGraphModel>
  </diagram>
</mxfile>
